<?xml version="1.0" encoding="utf-8"?><svg xmlns="http://www.w3.org/2000/svg" xmlns:xlink="http://www.w3.org/1999/xlink" width="200px" height="200px" viewBox="0 0 100 100" preserveAspectRatio="xMidYMid" style="display:block;background-color:rgb(255, 255, 255);animation-play-state:paused" ><g style="animation-play-state:paused" ><circle cx="48.11582565307617" cy="50" r="4" fill="#ffffff" fill-opacity="1" style="animation-play-state:paused" ></circle>

  
<circle cx="42.340946197509766" cy="50" r="4" fill="#ffffff" fill-opacity="1" style="animation-play-state:paused" ></circle>

  
<circle cx="95" cy="50" r="4" fill="#ffffff" fill-opacity="0" style="animation-play-state:paused" ></circle></g>
<g transform="translate(-15 0)" style="animation-play-state:paused" ><path d="M50 50L20 50A30 30 0 0 0 80 50Z" fill="#db5d19" transform="rotate(90 50 50)" style="animation-play-state:paused" ></path>

  
<path d="M50 50L20 50A30 30 0 0 0 80 50Z" fill="#db5d19" transform="matrix(1,0,0,1,0,0)" style="animation-play-state:paused" ></path>

  
<path d="M50 50L20 50A30 30 0 0 1 80 50Z" fill="#db5d19" transform="matrix(1,0,0,1,0,0)" style="animation-play-state:paused" ></path></g><!-- generated by https://loading.io/ --></svg>