<svg width="432" height="497" viewBox="0 0 432 497" fill="none" xmlns="http://www.w3.org/2000/svg">
<path d="M7.03814 2.32435C3.5192 1.74017 -0.0390271 1.24726 -3.50261 0.907428C-55.1296 -4.20335 -97.0625 14.415 -116.67 45.8506C-132.303 71.0238 -130.686 103.28 -119.313 135.607C-107.987 167.858 -86.17 199.587 -81.5464 231.754C-75.1124 277.065 -74.9766 324.339 -41.1006 373.175C-2.62785 428.673 71.0072 477.2 143.922 493.062C215.054 508.595 256.656 470.403 301.231 446.385C381.453 403.254 455.472 326.408 424.95 228.898C388.437 112.104 217.654 51.4687 92.2952 25.3041C63.7326 19.3468 35.438 7.1672 7.03814 2.32435Z" fill="url(#paint0_linear_151_675)" fill-opacity="0.1"/>
<path d="M7.03814 2.32435C3.5192 1.74017 -0.0390271 1.24726 -3.50261 0.907428C-55.1296 -4.20335 -97.0625 14.415 -116.67 45.8506C-132.303 71.0238 -130.686 103.28 -119.313 135.607C-107.987 167.858 -86.17 199.587 -81.5464 231.754C-75.1124 277.065 -74.9766 324.339 -41.1006 373.175C-2.62785 428.673 71.0072 477.2 143.922 493.062C215.054 508.595 256.656 470.403 301.231 446.385C381.453 403.254 455.472 326.408 424.95 228.898C388.437 112.104 217.654 51.4687 92.2952 25.3041C63.7326 19.3468 35.438 7.1672 7.03814 2.32435Z" fill="url(#paint1_linear_151_675)" fill-opacity="0.52"/>
<defs>
<linearGradient id="paint0_linear_151_675" x1="-159.164" y1="142.684" x2="396.434" y2="385.119" gradientUnits="userSpaceOnUse">
<stop stop-color="white"/>
<stop offset="1" stop-color="#F4F4F9" stop-opacity="0.6"/>
</linearGradient>
<linearGradient id="paint1_linear_151_675" x1="398.602" y1="379.84" x2="-158.229" y2="140.508" gradientUnits="userSpaceOnUse">
<stop stop-color="#468189"/>
<stop offset="1" stop-color="#A9FBD7"/>
</linearGradient>
</defs>
</svg>
