<svg width="411" height="406" viewBox="0 0 411 406" fill="none" xmlns="http://www.w3.org/2000/svg">
<path d="M434.794 199.785C436.118 197.497 437.379 195.14 438.496 192.784C455.19 157.681 450.869 119.067 430.998 90.9271C415.07 68.443 389.341 55.3027 361.161 49.1932C333.053 43.0834 302.777 44.7988 276.381 33.8746C239.217 18.4295 202.06 -2.44553 155.388 0.409364C102.355 3.63626 46.1609 35.4088 15.7943 81.1514C-13.8748 125.75 5.89882 172.808 13.8124 215.73C27.9784 292.935 70.1457 380.608 154.217 401.774C254.904 427.161 344.47 330.439 395.807 251.304C407.501 233.272 424.016 218.194 434.794 199.785Z" fill="url(#paint0_linear_141_608)" fill-opacity="0.52"/>
<defs>
<linearGradient id="paint0_linear_141_608" x1="42.1536" y1="315.736" x2="369.087" y2="21.3088" gradientUnits="userSpaceOnUse">
<stop stop-color="#468189"/>
<stop offset="1" stop-color="#A9FBD7"/>
</linearGradient>
</defs>
</svg>
