<svg width="30" height="32" viewBox="0 0 30 32" fill="none" xmlns="http://www.w3.org/2000/svg">
<path d="M1.05469 14.9129L15.8125 0.183008C15.9258 0.0707029 16.0703 0.0078125 16.2227 0.0078125L19.6797 0.0078125C19.9688 0.0078125 20.1016 0.421094 19.8828 0.636719L6.20313 14.293L29.0625 14.293C29.2344 14.293 29.375 14.4547 29.375 14.6523L29.375 17.3477C29.375 17.5453 29.2344 17.707 29.0625 17.707L6.20704 17.707L19.8867 31.3633C20.1055 31.5834 19.9727 31.9922 19.6836 31.9922L16.1094 31.9922C16.0352 31.9922 15.9609 31.9607 15.9063 31.9023L1.05469 17.0871C0.91946 16.9519 0.811035 16.7849 0.736732 16.5973C0.662432 16.4098 0.623981 16.2061 0.623981 16C0.623981 15.7939 0.662432 15.5902 0.736732 15.4027C0.811035 15.2151 0.91946 15.0481 1.05469 14.9129Z" fill="#203647"/>
</svg>
