<svg width="15" height="18" viewBox="0 0 15 18" fill="none" xmlns="http://www.w3.org/2000/svg">
<path d="M6.793 17.587C6.98053 17.7528 7.23484 17.846 7.5 17.846C7.76516 17.846 8.01947 17.7528 8.207 17.587L13.207 13.1639C13.3892 12.997 13.49 12.7736 13.4877 12.5416C13.4854 12.3097 13.3802 12.0878 13.1948 11.9238C13.0094 11.7598 12.7586 11.6668 12.4964 11.6647C12.2342 11.6627 11.9816 11.7519 11.793 11.913L8.5 14.8261V3.6923C8.5 3.45769 8.39464 3.23268 8.20711 3.06679C8.01957 2.90089 7.76522 2.80769 7.5 2.80769C7.23478 2.80769 6.98043 2.90089 6.79289 3.06679C6.60536 3.23268 6.5 3.45769 6.5 3.6923V14.8261L3.207 11.913C3.11475 11.8285 3.00441 11.7612 2.8824 11.7148C2.7604 11.6684 2.62918 11.644 2.4964 11.643C2.36362 11.642 2.23194 11.6644 2.10905 11.7088C1.98615 11.7533 1.8745 11.819 1.78061 11.9021C1.68671 11.9851 1.61246 12.0839 1.56218 12.1926C1.5119 12.3013 1.4866 12.4178 1.48775 12.5353C1.4889 12.6527 1.51649 12.7688 1.5689 12.8767C1.62131 12.9847 1.69749 13.0823 1.793 13.1639L6.793 17.587ZM14.25 1.48077C14.4489 1.48077 14.6397 1.41087 14.7803 1.28644C14.921 1.16202 15 0.993265 15 0.817305C15 0.641344 14.921 0.472589 14.7803 0.348166C14.6397 0.223743 14.4489 0.153843 14.25 0.153843H0.75C0.551087 0.153843 0.360322 0.223743 0.219669 0.348166C0.0790167 0.472589 0 0.641344 0 0.817305C0 0.993265 0.0790167 1.16202 0.219669 1.28644C0.360322 1.41087 0.551087 1.48077 0.75 1.48077H14.25Z" fill="black"/>
</svg>
