<svg width="29" height="32" viewBox="0 0 29 32" fill="none" xmlns="http://www.w3.org/2000/svg">
<path d="M28.3203 17.0793L13.5625 31.8092C13.4492 31.9215 13.3047 31.9844 13.1523 31.9844L9.69531 31.9844C9.40625 31.9844 9.27344 31.5711 9.49219 31.3555L23.1719 17.6992L0.3125 17.6992C0.140625 17.6992 0 17.5375 0 17.3398L0 14.6445C0 14.4469 0.140625 14.2852 0.3125 14.2852L23.168 14.2852L9.48828 0.628906C9.26953 0.408789 9.40234 0 9.69141 0L13.2656 0C13.3398 0 13.4141 0.0314445 13.4687 0.0898438L28.3203 14.9051C28.4555 15.0403 28.564 15.2073 28.6383 15.3949C28.7126 15.5824 28.751 15.7861 28.751 15.9922C28.751 16.1983 28.7126 16.402 28.6383 16.5895C28.564 16.777 28.4555 16.9441 28.3203 17.0793Z" fill="#203647"/>
</svg>
