<svg width="422" height="432" viewBox="0 0 422 432" fill="none" xmlns="http://www.w3.org/2000/svg">
<path d="M412.528 84.1155C412.029 81.5217 411.436 78.9147 410.729 76.3993C400.234 38.899 370.76 12.0819 336.065 3.17766C308.303 -3.90371 279.1 2.40429 252.705 15.6555C226.366 28.8609 203.594 49.4373 175.359 57.8672C135.563 69.6858 92.1076 77.3431 57.146 109.224C17.4083 145.437 -5.56445 205.518 1.30373 259.864C7.95099 312.89 55.3362 336.342 90.5565 364.172C153.854 414.275 246.347 454.578 327.078 417.295C423.79 372.672 429.308 241.626 416.481 148.369C413.554 127.122 416.432 105.069 412.528 84.1155Z" fill="url(#paint0_linear_46_329)" fill-opacity="0.1"/>
<path d="M412.528 84.1155C412.029 81.5217 411.436 78.9147 410.729 76.3993C400.234 38.899 370.76 12.0819 336.065 3.17766C308.303 -3.90371 279.1 2.40429 252.705 15.6555C226.366 28.8609 203.594 49.4373 175.359 57.8672C135.563 69.6858 92.1076 77.3431 57.146 109.224C17.4083 145.437 -5.56445 205.518 1.30373 259.864C7.95099 312.89 55.3362 336.342 90.5565 364.172C153.854 414.275 246.347 454.578 327.078 417.295C423.79 372.672 429.308 241.626 416.481 148.369C413.554 127.122 416.432 105.069 412.528 84.1155Z" fill="url(#paint1_linear_46_329)" fill-opacity="0.52"/>
<defs>
<linearGradient id="paint0_linear_46_329" x1="234.463" y1="-11.5289" x2="172.448" y2="421.66" gradientUnits="userSpaceOnUse">
<stop stop-color="#B8DBD9"/>
<stop offset="1" stop-color="#F4F4F9" stop-opacity="0.6"/>
</linearGradient>
<linearGradient id="paint1_linear_46_329" x1="180.445" y1="422.715" x2="240.677" y2="-10.6652" gradientUnits="userSpaceOnUse">
<stop stop-color="#468189"/>
<stop offset="1" stop-color="#A9FBD7"/>
</linearGradient>
</defs>
</svg>
