<svg width="672" height="551" viewBox="0 0 672 551" fill="none" xmlns="http://www.w3.org/2000/svg">
<path d="M41.0645 457.25L39.5508 465.307C33.7402 467.016 28.5645 470.043 24.3164 474.096L16.5772 471.386L7.6416 486.864L13.8184 492.162C13.1104 495.019 12.5 497.924 12.5 501C12.5 504.076 13.1104 506.981 13.8184 509.838L7.6416 515.136L16.5772 530.614L24.292 527.88C28.5645 531.981 33.7402 534.984 39.5508 536.718L41.0645 544.75H58.9356L60.4492 536.718C66.2598 534.984 71.4355 531.957 75.6836 527.88L83.3984 530.614L92.3584 515.136L86.1572 509.838C86.8652 506.981 87.5 504.076 87.5 501C87.5 497.924 86.8897 495.019 86.1816 492.162L92.3584 486.864L83.4229 471.386L75.708 474.096C71.4356 470.019 66.2598 467.016 60.4492 465.307L58.9356 457.25H41.0645ZM46.2402 463.5H53.7598L54.9805 470.092L56.9824 470.58C63.1836 471.996 68.6523 475.243 72.8516 479.735L74.2432 481.225L80.5908 479.003L84.3506 485.497L79.2725 489.867L79.8828 491.82C80.7617 494.701 81.25 497.802 81.25 501C81.25 504.198 80.7617 507.274 79.8828 510.18L79.2725 512.133L84.3506 516.503L80.5908 522.997L74.2432 520.751L72.8516 522.265C68.6523 526.757 63.1836 530.004 56.9824 531.444L54.9805 531.884L53.7598 538.5H46.2402L45.0195 531.884L43.0176 531.444C36.8164 530.004 31.3477 526.757 27.1484 522.265L25.7324 520.751L19.3848 522.997L15.6494 516.503L20.7275 512.133L20.1172 510.18C19.2383 507.299 18.75 504.198 18.75 501C18.75 497.802 19.2383 494.701 20.1172 491.82L20.7275 489.867L15.6494 485.497L19.3848 479.003L25.7568 481.225L27.1484 479.735C31.3477 475.243 36.8164 471.996 43.0176 470.58L45.0195 470.092L46.2402 463.5ZM50 482.25C39.6729 482.25 31.25 490.673 31.25 501C31.25 511.327 39.6729 519.75 50 519.75C60.3271 519.75 68.75 511.327 68.75 501C68.75 490.673 60.3271 482.25 50 482.25ZM50 488.5C56.9336 488.5 62.5 494.066 62.5 501C62.5 507.934 56.9336 513.5 50 513.5C43.0664 513.5 37.5 507.934 37.5 501C37.5 494.066 43.0664 488.5 50 488.5Z" fill="#00BFA6"/>
<path d="M531.064 375.25L529.551 383.307C523.74 385.016 518.564 388.043 514.316 392.096L506.577 389.386L497.642 404.864L503.818 410.162C503.11 413.019 502.5 415.924 502.5 419C502.5 422.076 503.11 424.981 503.818 427.838L497.642 433.136L506.577 448.614L514.292 445.88C518.564 449.981 523.74 452.984 529.551 454.718L531.064 462.75H548.936L550.449 454.718C556.26 452.984 561.436 449.957 565.684 445.88L573.398 448.614L582.358 433.136L576.157 427.838C576.865 424.981 577.5 422.076 577.5 419C577.5 415.924 576.89 413.019 576.182 410.162L582.358 404.864L573.423 389.386L565.708 392.096C561.436 388.019 556.26 385.016 550.449 383.307L548.936 375.25H531.064ZM536.24 381.5H543.76L544.98 388.092L546.982 388.58C553.184 389.996 558.652 393.243 562.852 397.735L564.243 399.225L570.591 397.003L574.351 403.497L569.272 407.867L569.883 409.82C570.762 412.701 571.25 415.802 571.25 419C571.25 422.198 570.762 425.274 569.883 428.18L569.272 430.133L574.351 434.503L570.591 440.997L564.243 438.751L562.852 440.265C558.652 444.757 553.184 448.004 546.982 449.444L544.98 449.884L543.76 456.5H536.24L535.02 449.884L533.018 449.444C526.816 448.004 521.348 444.757 517.148 440.265L515.732 438.751L509.385 440.997L505.649 434.503L510.728 430.133L510.117 428.18C509.238 425.299 508.75 422.198 508.75 419C508.75 415.802 509.238 412.701 510.117 409.82L510.728 407.867L505.649 403.497L509.385 397.003L515.757 399.225L517.148 397.735C521.348 393.243 526.816 389.996 533.018 388.58L535.02 388.092L536.24 381.5ZM540 400.25C529.673 400.25 521.25 408.673 521.25 419C521.25 429.327 529.673 437.75 540 437.75C550.327 437.75 558.75 429.327 558.75 419C558.75 408.673 550.327 400.25 540 400.25ZM540 406.5C546.934 406.5 552.5 412.066 552.5 419C552.5 425.934 546.934 431.5 540 431.5C533.066 431.5 527.5 425.934 527.5 419C527.5 412.066 533.066 406.5 540 406.5Z" fill="#00BFA6"/>
<path d="M670.316 164.442L658.496 162.51C657.804 160.138 656.858 157.858 655.674 155.7L662.574 145.866C663.132 145.072 663.036 143.99 662.35 143.302L654.572 135.528C653.878 134.836 652.786 134.746 651.99 135.32L642.304 142.282C640.126 141.078 637.826 140.122 635.44 139.428L633.378 127.656C633.21 126.7 632.38 126 631.408 126H620.408C619.428 126 618.592 126.71 618.434 127.678L616.522 139.386C614.122 140.076 611.818 141.022 609.648 142.21L599.988 135.31C599.19 134.74 598.104 134.832 597.41 135.522L589.636 143.296C588.95 143.982 588.854 145.062 589.412 145.856L596.21 155.582C595 157.772 594.036 160.09 593.334 162.502L581.672 164.444C580.708 164.604 580 165.44 580 166.416V177.416C580 178.386 580.696 179.216 581.65 179.386L593.312 181.454C594.01 183.86 594.974 186.178 596.188 188.374L589.306 198C588.738 198.794 588.828 199.884 589.518 200.578L597.294 208.36C597.98 209.046 599.062 209.142 599.856 208.584L609.596 201.762C611.782 202.964 614.092 203.918 616.486 204.61L618.438 216.332C618.596 217.294 619.43 218 620.408 218H631.408C632.378 218 633.208 217.304 633.376 216.35L635.466 204.57C637.864 203.864 640.162 202.904 642.326 201.7L652.136 208.582C652.932 209.144 654.012 209.046 654.7 208.36L662.476 200.578C663.168 199.884 663.258 198.79 662.684 197.994L655.688 188.28C656.874 186.12 657.816 183.836 658.502 181.464L670.338 179.386C671.296 179.218 671.992 178.386 671.992 177.416V166.416C671.994 165.436 671.284 164.6 670.316 164.442ZM625.996 186C618.264 186 611.996 179.732 611.996 172C611.996 164.268 618.264 158 625.996 158C633.728 158 639.996 164.268 639.996 172C639.996 179.732 633.728 186 625.996 186Z" fill="#00BFA6"/>
<path d="M210.316 118.442L198.496 116.51C197.804 114.138 196.858 111.858 195.674 109.7L202.574 99.866C203.132 99.072 203.036 97.99 202.35 97.302L194.572 89.528C193.878 88.836 192.786 88.746 191.99 89.32L182.304 96.282C180.126 95.078 177.826 94.122 175.44 93.428L173.378 81.656C173.21 80.7 172.38 80 171.408 80H160.408C159.428 80 158.592 80.71 158.434 81.678L156.522 93.386C154.122 94.076 151.818 95.022 149.648 96.21L139.988 89.31C139.19 88.74 138.104 88.832 137.41 89.522L129.636 97.296C128.95 97.982 128.854 99.062 129.412 99.856L136.21 109.582C135 111.772 134.036 114.09 133.334 116.502L121.672 118.444C120.708 118.604 120 119.44 120 120.416V131.416C120 132.386 120.696 133.216 121.65 133.386L133.312 135.454C134.01 137.86 134.974 140.178 136.188 142.374L129.306 152C128.738 152.794 128.828 153.884 129.518 154.578L137.294 162.36C137.98 163.046 139.062 163.142 139.856 162.584L149.596 155.762C151.782 156.964 154.092 157.918 156.486 158.61L158.438 170.332C158.596 171.294 159.43 172 160.408 172H171.408C172.378 172 173.208 171.304 173.376 170.35L175.466 158.57C177.864 157.864 180.162 156.904 182.326 155.7L192.136 162.582C192.932 163.144 194.012 163.046 194.7 162.36L202.476 154.578C203.168 153.884 203.258 152.79 202.684 151.994L195.688 142.28C196.874 140.12 197.816 137.836 198.502 135.464L210.338 133.386C211.296 133.218 211.992 132.386 211.992 131.416V120.416C211.994 119.436 211.284 118.6 210.316 118.442ZM165.996 140C158.264 140 151.996 133.732 151.996 126C151.996 118.268 158.264 112 165.996 112C173.728 112 179.996 118.268 179.996 126C179.996 133.732 173.728 140 165.996 140Z" fill="#00BFA6"/>
<path d="M148.149 299.685C150.838 303.089 152.788 306.054 152.586 310.227C152.452 314.125 151.712 317.968 151.309 321.811C151.242 322.635 151.174 323.404 151.107 324.172C149.763 323.239 148.485 322.306 147.141 321.372C146.536 321.317 145.931 321.317 145.258 321.317C147.141 322.58 149.09 323.953 150.973 325.325C150.771 328.016 150.704 330.706 150.704 333.396C150.704 334.988 150.637 336.69 150.771 338.282C149.023 337.404 147.208 336.526 145.527 335.647C140.284 333.012 135.376 330.541 131.612 329.223C128.721 328.235 125.494 327.357 122.402 326.533C114.335 324.392 106.066 322.196 103.31 317.529C101.898 315.113 102.032 312.203 103.713 308.689C107.948 299.63 103.982 298.093 97.3267 295.458C92.4864 293.536 85.8983 290.956 79.3102 284.422C76.4195 281.567 73.865 279.096 71.5793 276.955C64.7895 270.422 61.0249 266.853 61.4955 264.767C61.6299 264.272 61.9661 263.833 62.6383 263.394C62.9744 263.174 63.3778 262.955 63.9156 262.735C66.4702 261.582 69.0247 262.461 71.9154 263.449C75.8145 264.767 80.5875 266.469 87.2429 263.668C92.4864 261.472 98.3351 259.441 101.831 261.088C104.251 262.186 105.663 265.041 106.133 269.708C106.268 271.19 106.873 272.233 107.881 272.837C109.36 273.716 111.646 273.606 114.268 273.167C116.083 275.198 118.436 276.187 121.259 277.01C125.225 278.163 128.183 279.206 131.074 281.842C137.259 287.552 143.242 293.371 148.149 299.685Z" fill="#2A94F4"/>
<path d="M126.705 308.744C122.671 306.548 119.175 301.222 115.814 296.061C111.243 289.034 106.47 281.787 99.9488 281.951C89.4616 282.171 80.1173 272.069 79.9828 272.014L79.1089 272.563C79.5122 273.002 88.9238 283.104 99.9488 282.885C105.797 282.775 110.436 289.748 114.806 296.556C118.234 301.771 121.797 307.207 126.032 309.568C128.587 310.94 133.293 313.74 138.872 317.309C138.872 316.925 138.872 316.541 138.872 316.156C133.965 312.807 129.595 310.282 126.705 308.744Z" fill="white"/>
<path d="M480.983 376.77C480.983 376.77 487.034 364.472 476.009 347.012C464.917 329.553 455.976 332.243 482.664 318.792C509.353 305.34 482.798 263.065 505.521 257.684C528.243 252.303 547.94 183.839 565.217 192.568C582.494 201.298 559.436 234.844 571.805 244.946C584.107 255.049 585.788 267.841 560.31 278.218C534.831 288.595 578.393 328.235 543.839 340.314C509.285 352.393 519.235 399.775 480.983 376.77Z" fill="#FFBE55"/>
<path d="M491.537 389.782C491.47 389.617 487.773 373.915 499.537 353.601C511.503 332.902 517.217 310.282 514.864 293.042C513.587 283.708 520.915 280.085 527.973 276.571C534.965 273.112 542.158 269.488 541.755 260.319C541.419 252.029 545.721 232.593 545.855 231.77L547.402 231.989C547.334 232.209 542.965 252.139 543.301 260.265C543.704 270.202 536.108 273.99 528.78 277.614C521.789 281.073 515.268 284.367 516.411 292.877C518.831 310.282 513.049 333.177 500.949 354.095C489.453 374.025 493.016 389.343 493.083 389.508L491.537 389.782Z" fill="white"/>
<path d="M583.3 287.771C592.914 284.038 603.132 285.74 597.821 293.591C592.51 301.442 584.578 302.046 586.057 308.25C587.536 314.454 591.435 321.208 578.931 325.161C566.427 329.059 560.578 328.4 552.982 339.875C545.318 351.35 542.696 359.86 529.587 357.115C516.478 354.314 527.369 340.204 534.159 334.275C534.159 334.275 543.368 327.906 543.234 316.431C543.1 304.956 537.318 297.27 555.469 298.038C573.62 298.697 576.78 290.297 583.3 287.771Z" fill="#0E538C"/>
<path d="M527.503 365.13C528.041 363.648 540.679 328.125 551.032 324.282C561.587 320.329 567.301 310.007 569.788 304.242C573.015 296.721 586.796 295.238 587.334 295.183L587.536 296.446C587.401 296.446 574.158 297.874 571.267 304.627C568.175 311.929 562.259 321.482 551.704 325.435C542.024 329.059 529.184 365.13 529.049 365.515L527.503 365.13ZM194.535 336.526C173.83 332.298 173.561 323.184 173.292 314.4C173.09 307.207 172.889 300.399 161.662 296.226C146.805 290.681 146.469 280.414 146.133 271.355C145.864 264.602 145.662 258.233 139.477 254.774C124.621 246.484 112.049 226.389 111.915 226.169L113.058 225.675C113.192 225.895 125.562 245.715 140.217 253.896C146.94 257.629 147.208 264.273 147.41 271.3C147.746 280.469 148.082 290.022 162.2 295.238C174.099 299.685 174.368 307.152 174.569 314.345C174.838 323.129 175.107 331.475 194.871 335.483L194.535 336.526Z" fill="white"/>
<path d="M166.637 328.399H506.731V127.891C506.731 125.036 503.907 122.675 500.344 122.675H173.023C169.527 122.675 166.637 124.981 166.637 127.891V328.399Z" fill="#F7F7F7"/>
<path d="M178.65 291.018L494.072 291.018V132.73L178.65 132.73V291.018Z" fill="#0B4870" stroke="white" stroke-width="0.5" stroke-miterlimit="10"/>
<path d="M506.731 298.697H336.717H166.771L129.528 412.293H337.86H543.906L506.731 298.697Z" fill="#F2F2F2"/>
<path d="M179.611 318.627H200.518C201.392 318.627 202.064 319.176 201.863 319.78L199.846 327.192C199.711 327.631 199.173 327.961 198.501 327.961H177.258C176.384 327.961 175.712 327.412 175.913 326.753L178.266 319.341C178.401 318.956 178.939 318.627 179.611 318.627Z" fill="#0B4870" stroke="white" stroke-width="0.5" stroke-miterlimit="10"/>
<path d="M210.064 318.627H225.862L223.778 328.015H207.644L210.064 318.627Z" fill="#0B4870" stroke="white" stroke-width="0.5" stroke-miterlimit="10"/>
<path d="M233.727 318.627H249.525L247.912 328.015H231.778L233.727 318.627Z" fill="#0B4870" stroke="white" stroke-width="0.5" stroke-miterlimit="10"/>
<path d="M257.458 318.627H273.256L272.046 328.015H255.912L257.458 318.627Z" fill="#0B4870" stroke="white" stroke-width="0.5" stroke-miterlimit="10"/>
<path d="M281.122 318.627H296.92L296.18 328.015H280.046L281.122 318.627Z" fill="#0B4870" stroke="white" stroke-width="0.5" stroke-miterlimit="10"/>
<path d="M304.785 318.627H320.583L320.314 328.015H304.18L304.785 318.627Z" fill="#0B4870" stroke="white" stroke-width="0.5" stroke-miterlimit="10"/>
<path d="M494.361 318.627H470.63L473.185 328.015H497.319L494.361 318.627Z" fill="#0B4870" stroke="white" stroke-width="0.5" stroke-miterlimit="10"/>
<path d="M462.764 318.627H446.966L449.05 328.015H465.184L462.764 318.627Z" fill="#0B4870" stroke="white" stroke-width="0.5" stroke-miterlimit="10"/>
<path d="M439.101 318.627H423.303L424.917 328.015H441.051L439.101 318.627Z" fill="#0B4870" stroke="white" stroke-width="0.5" stroke-miterlimit="10"/>
<path d="M415.371 318.627H399.573L400.783 328.015H416.917L415.371 318.627Z" fill="#0B4870" stroke="white" stroke-width="0.5" stroke-miterlimit="10"/>
<path d="M391.708 318.627H375.91L376.649 328.015H392.783L391.708 318.627Z" fill="#0B4870" stroke="white" stroke-width="0.5" stroke-miterlimit="10"/>
<path d="M368.044 318.627H352.246L352.515 328.015H368.649L368.044 318.627Z" fill="#0B4870" stroke="white" stroke-width="0.5" stroke-miterlimit="10"/>
<path d="M328.516 318.627H344.314L344.515 328.015H328.516V318.627Z" fill="#0B4870" stroke="white" stroke-width="0.5" stroke-miterlimit="10"/>
<path d="M172.687 334.988H205.628L203.746 344.651H170.133L172.687 334.988Z" fill="#0B4870" stroke="white" stroke-width="0.5" stroke-miterlimit="10"/>
<path d="M499.47 334.988H458.731L461.017 344.651H502.629L499.47 334.988Z" fill="#0B4870" stroke="white" stroke-width="0.5" stroke-miterlimit="10"/>
<path d="M450.53 334.988H434.261L436.076 344.651H452.748L450.53 334.988Z" fill="#0B4870" stroke="white" stroke-width="0.5" stroke-miterlimit="10"/>
<path d="M426.06 334.988H409.791L411.136 344.651H427.807L426.06 334.988Z" fill="#0B4870" stroke="white" stroke-width="0.5" stroke-miterlimit="10"/>
<path d="M401.59 334.988H385.321L386.262 344.651H402.867L401.59 334.988Z" fill="#0B4870" stroke="white" stroke-width="0.5" stroke-miterlimit="10"/>
<path d="M377.12 334.988H360.851L361.322 344.651H377.926L377.12 334.988Z" fill="#0B4870" stroke="white" stroke-width="0.5" stroke-miterlimit="10"/>
<path d="M167.712 352.173H201.459L198.972 361.781H164.62L167.712 352.173Z" fill="#0B4870" stroke="white" stroke-width="0.5" stroke-miterlimit="10"/>
<path d="M209.862 352.173H226.736L224.786 361.781H207.577L209.862 352.173Z" fill="#0B4870" stroke="white" stroke-width="0.5" stroke-miterlimit="10"/>
<path d="M235.207 352.173H252.08H361.658L362.128 361.781H233.324L235.207 352.173Z" fill="#0B4870" stroke="white" stroke-width="0.5" stroke-miterlimit="10"/>
<path d="M370.128 352.173H387.002L387.943 361.781H370.733L370.128 352.173Z" fill="#0B4870" stroke="white" stroke-width="0.5" stroke-miterlimit="10"/>
<path d="M395.405 352.173H412.278L413.69 361.781H396.48L395.405 352.173Z" fill="#0B4870" stroke="white" stroke-width="0.5" stroke-miterlimit="10"/>
<path d="M420.749 352.173H437.623L439.438 361.781H422.295L420.749 352.173Z" fill="#0B4870" stroke="white" stroke-width="0.5" stroke-miterlimit="10"/>
<path d="M446.026 352.173H462.9L465.185 361.781H448.043L446.026 352.173Z" fill="#0B4870" stroke="white" stroke-width="0.5" stroke-miterlimit="10"/>
<path d="M471.302 352.173H505.049L508.142 361.781H473.79L471.302 352.173Z" fill="#0B4870" stroke="white" stroke-width="0.5" stroke-miterlimit="10"/>
<path d="M352.717 334.988H336.516V344.651H352.986L352.717 334.988Z" fill="#0B4870" stroke="white" stroke-width="0.5" stroke-miterlimit="10"/>
<path d="M328.247 334.988H311.911L311.44 344.651H328.112L328.247 334.988Z" fill="#0B4870" stroke="white" stroke-width="0.5" stroke-miterlimit="10"/>
<path d="M303.776 334.988H287.441L286.5 344.651H303.171L303.776 334.988Z" fill="#0B4870" stroke="white" stroke-width="0.5" stroke-miterlimit="10"/>
<path d="M279.307 334.988H262.971L261.559 344.651H278.231L279.307 334.988Z" fill="#0B4870" stroke="white" stroke-width="0.5" stroke-miterlimit="10"/>
<path d="M254.836 334.988H238.5L236.618 344.651H253.29L254.836 334.988Z" fill="#0B4870" stroke="white" stroke-width="0.5" stroke-miterlimit="10"/>
<path d="M230.366 334.988H214.03L211.745 344.651H228.349L230.366 334.988Z" fill="#0B4870" stroke="white" stroke-width="0.5" stroke-miterlimit="10"/>
<path d="M180.351 312.752L183.04 304.407H190.703L188.216 312.752H180.351Z" fill="#0B4870" stroke="white" stroke-width="0.5" stroke-miterlimit="10"/>
<path d="M198.367 304.407H213.694L211.61 312.752H195.947L198.367 304.407Z" fill="#0B4870" stroke="white" stroke-width="0.5" stroke-miterlimit="10"/>
<path d="M221.425 304.407H236.752L235.005 312.752H219.408L221.425 304.407Z" fill="#0B4870" stroke="white" stroke-width="0.5" stroke-miterlimit="10"/>
<path d="M244.416 304.407H259.744L258.399 312.752H242.803L244.416 304.407Z" fill="#0B4870" stroke="white" stroke-width="0.5" stroke-miterlimit="10"/>
<path d="M267.407 304.407H282.735L281.794 312.752H266.197L267.407 304.407Z" fill="#0B4870" stroke="white" stroke-width="0.5" stroke-miterlimit="10"/>
<path d="M290.399 304.407H305.726L305.188 312.752H289.592L290.399 304.407Z" fill="#0B4870" stroke="white" stroke-width="0.5" stroke-miterlimit="10"/>
<path d="M313.39 304.407H328.717L328.583 312.752H312.986L313.39 304.407Z" fill="#0B4870" stroke="white" stroke-width="0.5" stroke-miterlimit="10"/>
<path d="M336.38 304.407H351.708L351.977 312.752H336.38V304.407Z" fill="#0B4870" stroke="white" stroke-width="0.5" stroke-miterlimit="10"/>
<path d="M359.372 304.407H374.699L375.371 312.752H359.775L359.372 304.407Z" fill="#0B4870" stroke="white" stroke-width="0.5" stroke-miterlimit="10"/>
<path d="M382.363 304.407H397.758L398.766 312.752H383.17L382.363 304.407Z" fill="#0B4870" stroke="white" stroke-width="0.5" stroke-miterlimit="10"/>
<path d="M405.421 304.407H420.749L422.228 312.752H406.631L405.421 304.407Z" fill="#0B4870" stroke="white" stroke-width="0.5" stroke-miterlimit="10"/>
<path d="M428.413 304.407H443.74L445.622 312.752H430.026L428.413 304.407Z" fill="#0B4870" stroke="white" stroke-width="0.5" stroke-miterlimit="10"/>
<path d="M451.403 304.407H466.731L469.016 312.752H453.42L451.403 304.407Z" fill="#0B4870" stroke="white" stroke-width="0.5" stroke-miterlimit="10"/>
<path d="M474.395 304.407H489.722L492.411 312.752H476.815L474.395 304.407Z" fill="#0B4870" stroke="white" stroke-width="0.5" stroke-miterlimit="10"/>
<path d="M533.083 421.131H140.352C134.369 421.131 129.528 417.178 129.528 412.292H543.906C543.906 417.178 539.066 421.131 533.083 421.131ZM384.918 375.561C384.515 373.585 382.364 372.103 379.943 372.103H336.785H293.559C291.071 372.103 288.987 373.585 288.584 375.561L283.206 402.19C282.668 404.715 285.088 407.021 288.181 407.021H336.717H385.254C388.414 407.021 390.767 404.715 390.229 402.19L384.918 375.561Z" fill="#D3D3D3"/>
<path d="M235.072 146.175H199.913V149.14H235.072V146.175Z" fill="#F7F7F7"/>
<path d="M270.298 168.301H244.954V171.266H270.298V168.301Z" fill="#F7F7F7"/>
<path d="M291.071 168.301H274.264V171.266H291.071V168.301Z" fill="#F7F7F7"/>
<path d="M217.123 223.973H200.316V226.937H217.123V223.973Z" fill="#F7F7F7"/>
<path d="M335.103 168.301H294.432V171.266H335.103V168.301Z" fill="#F7F7F7"/>
<path d="M226.467 212.827H200.316V215.792H226.467V212.827Z" fill="#F7F7F7"/>
<path d="M252.685 235.008H236.752V237.973H252.685V235.008Z" fill="#F7F7F7"/>
<path d="M231.912 235.008H200.316V237.973H231.912V235.008Z" fill="#F7F7F7"/>
<path d="M217.728 246.1H200.316V249.064H217.728V246.1Z" fill="#F7F7F7"/>
<path d="M266.869 146.175H241.929V149.14H266.869V146.175Z" fill="#F7F7F7"/>
<path d="M266.869 179.391H241.929V182.356H266.869V179.391Z" fill="#F7F7F7"/>
<path d="M240.114 190.427H229.425V193.392H240.114V190.427Z" fill="#F7F7F7"/>
<path d="M242.736 201.683H218.804V204.647H242.736V201.683Z" fill="#F7F7F7"/>
<path d="M279.441 201.683H246.366V204.647H279.441V201.683Z" fill="#F7F7F7"/>
<path d="M225.257 190.536H200.316V193.501H225.257V190.536Z" fill="#F7F7F7"/>
<path d="M215.106 201.683H200.316V204.647H215.106V201.683Z" fill="#F7F7F7"/>
<path d="M259.138 190.536H245.155V193.501H259.138V190.536Z" fill="#F7F7F7"/>
<path d="M214.77 257.135H200.787V260.1H214.77V257.135Z" fill="#F7F7F7"/>
<path d="M225.189 168.301H200.249V171.266H225.189V168.301Z" fill="#F7F7F7"/>
<path d="M247.24 223.973H222.299V226.937H247.24V223.973Z" fill="#F7F7F7"/>
<path d="M247.575 246.1H222.635V249.064H247.575V246.1Z" fill="#F7F7F7"/>
<path d="M291.878 246.1H266.937V249.064H291.878V246.1Z" fill="#F7F7F7"/>
<path d="M235.811 179.391H200.249V182.356H235.811V179.391Z" fill="#F7F7F7"/>
<path d="M391.842 146.175H366.901V149.14H391.842V146.175Z" fill="#F7F7F7"/>
<path d="M302.97 257.135H278.029V260.1H302.97V257.135Z" fill="#F7F7F7"/>
<path d="M416.245 146.175H399.573V149.14H416.245V146.175Z" fill="#F7F7F7"/>
<path d="M472.781 157.265H456.109V160.229H472.781V157.265Z" fill="#F7F7F7"/>
<path d="M305.39 146.175H273.592V149.14H305.39V146.175Z" fill="#F7F7F7"/>
<path d="M429.219 157.265H397.421V160.229H429.219V157.265Z" fill="#F7F7F7"/>
<path d="M390.228 168.301H358.431V171.266H390.228V168.301Z" fill="#F7F7F7"/>
<path d="M348.885 179.391H317.087V182.356H348.885V179.391Z" fill="#F7F7F7"/>
<path d="M416.782 168.301H394.194V171.266H416.782V168.301Z" fill="#F7F7F7"/>
<path d="M360.649 146.175H328.851V149.14H360.649V146.175Z" fill="#F7F7F7"/>
<path d="M311.238 179.391H292.617V182.356H311.238V179.391Z" fill="#F7F7F7"/>
<path d="M296.651 224.137H278.029V227.102H296.651V224.137Z" fill="#F7F7F7"/>
<path d="M322.868 146.175H311.238V149.14H322.868V146.175Z" fill="#F7F7F7"/>
<path d="M285.222 179.391H273.592V182.356H285.222V179.391Z" fill="#F7F7F7"/>
<path d="M448.513 157.265H436.883V160.229H448.513V157.265Z" fill="#F7F7F7"/>
<path d="M218.131 157.265H199.913V160.229H218.131V157.265Z" fill="#F7F7F7"/>
<path d="M262.903 212.882H248.517V215.847H262.903V212.882Z" fill="#F7F7F7"/>
<path d="M228.483 157.265H222.635V160.229H228.483V157.265Z" fill="#F7F7F7"/>
<path d="M391.842 157.265H343.238V160.229H391.842V157.265Z" fill="#F7F7F7"/>
<path d="M345.254 246.1H296.65V249.064H345.254V246.1Z" fill="#F7F7F7"/>
<path d="M238.77 157.265H232.787V160.229H238.77V157.265Z" fill="#F7F7F7"/>
<path d="M338.734 157.265H322.869V160.229H338.734V157.265Z" fill="#F7F7F7"/>
<path d="M354.666 168.301H338.801V171.266H354.666V168.301Z" fill="#F7F7F7"/>
<path d="M272.92 257.135H257.055V260.1H272.92V257.135Z" fill="#F7F7F7"/>
<path d="M318.7 157.265H284.886V160.229H318.7V157.265Z" fill="#F7F7F7"/>
<path d="M273.122 224.137H253.357V227.102H273.122V224.137Z" fill="#F7F7F7"/>
<path d="M262.029 246.1H252.147V249.064H262.029V246.1Z" fill="#F7F7F7"/>
<path d="M280.046 157.265H268.416V160.229H280.046V157.265Z" fill="#F7F7F7"/>
<path d="M240.921 168.301H229.291V171.266H240.921V168.301Z" fill="#F7F7F7"/>
<path d="M243.206 212.882H231.576V215.847H243.206V212.882Z" fill="#F7F7F7"/>
<path d="M264.046 157.265H243.744V160.229H264.046V157.265Z" fill="#F7F7F7"/>
<path d="M413.959 179.501C413.959 179.501 419.875 187.681 422.362 188.999C425.724 190.811 423.64 192.623 422.026 192.678C420.413 192.678 412.211 193.172 410.396 191.47C408.581 189.768 407.707 184.772 406.027 183.454C404.346 182.136 402.598 176.92 406.833 175.658C410.531 174.505 413.959 179.501 413.959 179.501Z" fill="#FFB750"/>
<path d="M411.337 175.933C411.337 175.933 418.127 185.541 419.27 186.913C420.413 188.341 417.051 188.341 414.967 187.682C412.883 187.023 407.64 180.16 406.9 178.897C406.026 177.415 406.766 175.713 406.766 175.713L411.337 175.933Z" fill="#FFE3CA"/>
<path d="M404.479 181.038L406.093 190.865L406.9 190.92L406.631 183.838L404.479 181.038Z" fill="#FFB750"/>
<path d="M355.271 179.501C355.271 179.501 361.187 187.682 363.674 189C367.035 190.812 364.951 192.623 363.338 192.678C361.724 192.678 353.523 193.172 351.708 191.47C349.893 189.768 349.019 184.772 347.338 183.454C345.658 182.137 343.842 176.756 348.145 175.658C351.91 174.67 355.271 179.501 355.271 179.501Z" fill="#FFB750"/>
<path d="M353.052 175.933C353.052 175.933 359.439 185.486 360.649 186.913C361.791 188.341 358.43 188.341 356.346 187.682C354.262 187.023 349.019 180.16 348.279 178.897C347.405 177.415 348.145 175.713 348.145 175.713L353.052 175.933Z" fill="#FFE3CA"/>
<path d="M345.859 181.038L347.406 190.865L348.28 190.92L348.011 183.838L345.859 181.038Z" fill="#FFB750"/>
<path d="M329.053 104.998L382.565 124.928C382.565 124.928 388.548 126.52 389.22 131.955C391.304 148.866 406.766 175.658 406.766 175.658C411.741 177.635 411.337 175.933 411.337 175.933C408.178 167.697 404.413 133.877 403.001 120.316C402.732 117.461 402.531 115.484 402.464 114.825C402.464 114.386 401.858 113.837 400.85 113.178C393.522 108.292 363.271 98.2444 363.271 98.2444C340.75 97.7502 329.053 104.998 329.053 104.998Z" fill="#FFE3CA"/>
<path d="M318.969 113.562C320.649 125.366 341.288 124.048 341.288 124.048H366.296C366.296 124.048 359.707 136.017 357.153 146.065C354.464 156.771 348.077 175.658 348.077 175.658C348.077 175.658 348.481 176.317 353.052 175.932C353.052 175.932 372.682 143.978 380.211 135.908C381.825 134.206 386.463 124.762 387.27 119.162C387.539 117.295 387.404 115.813 386.53 115.209C385.656 114.605 383.64 113.507 381.018 112.134C373.152 108.072 359.573 101.867 351.976 100.495C341.825 98.6281 325.759 95.1143 325.759 95.1143C325.759 95.1143 317.288 101.758 318.969 113.562Z" fill="#FFE3CA"/>
<path d="M335.977 22.5317C335.977 22.5317 332.213 16.7119 334.028 10.5627C335.843 4.35857 342.902 -1.79064 353.187 1.06435C363.473 3.91934 371.809 10.398 365.624 17.9747C359.439 25.4965 371.204 28.9554 368.178 32.5241C365.153 36.0929 366.296 39.8812 367.573 40.7048C368.851 41.5283 372.951 44.4931 372.481 48.0618C372.01 51.5757 352.515 37.7949 352.515 37.7949C352.515 37.7949 341.96 20.2806 335.977 22.5317Z" fill="#0E538C"/>
<path d="M367.372 96.7609C367.372 96.7609 365.826 102.91 325.827 95.1687C325.827 95.1687 339.205 91.545 367.372 96.7609Z" fill="#EB4747"/>
<path d="M325.356 96.8712C324.751 97.8595 324.146 98.7928 323.474 99.7811C338.062 100.111 352.717 100.495 367.305 100.824C365.019 94.5104 365.759 85.9454 366.162 79.4668C366.632 71.5057 372.011 66.0154 371.473 57.9995C374.363 58.3838 374.834 58.4387 377.725 58.823C373.288 48.5011 371.809 43.3951 358.028 39.442C353.523 38.1243 350.633 37.9047 345.793 38.2341C329.86 39.3322 325.087 39.442 317.222 51.2463C329.457 52.8385 327.44 56.4072 331.137 66.3997C332.952 71.2312 334.835 76.6667 333.894 81.7727C332.952 86.769 325.356 92.3142 325.356 96.8712Z" fill="white"/>
<path d="M350.767 41.9124C344.246 40.9241 345.658 37.9593 345.658 37.9593C345.658 37.9593 345.927 36.3122 346.062 34.171C346.062 33.622 346.129 33.0729 346.129 32.469C346.129 31.5905 346.062 30.7121 345.927 29.8336C345.389 26.2649 357.759 28.4061 357.759 28.4061C357.759 28.4061 357.019 35.6534 358.767 37.7946C360.448 39.9908 357.288 42.9556 350.767 41.9124Z" fill="#FFE3CA"/>
<path d="M338.331 37.9596C338.331 37.9596 351.507 50.3678 356.347 53.2228C356.347 53.2228 361.927 49.105 358.498 38.2341C358.498 38.2341 352.179 35.5987 338.331 37.9596Z" fill="#FFE3CA"/>
<path d="M338.734 8.09135C338.734 8.09135 331.877 18.8525 338.667 29.0096C345.457 39.1668 358.767 24.5624 359.574 22.8604C360.448 21.1584 365.019 11.4405 355.944 8.53058C346.868 5.56579 340.684 5.18146 338.734 8.09135Z" fill="#FFE3CA"/>
<path d="M351.91 30.1089C351.91 30.1089 350.7 32.2501 346.062 34.1718C346.062 33.6227 346.129 33.0737 346.129 32.4697C346.129 32.4697 349.288 32.1952 351.91 30.1089Z" fill="#FCD2B1"/>
<path d="M282.87 87.2088C282.87 87.2088 279.643 88.3618 278.097 87.8677C276.551 87.3186 274.198 87.2088 273.458 87.2088C272.45 87.2088 269.29 86.2755 269.358 87.3186C269.425 88.3069 274.467 89.0206 275.475 89.3501C276.483 89.6795 272.383 91.4913 271.979 92.3149C271.576 93.1384 276.282 98.519 278.904 96.9817C281.525 95.4444 282.937 92.3698 283.475 92.1501C284.013 91.9305 285.424 91.107 285.424 91.107L282.87 87.2088Z" fill="#FFE3CA"/>
<path d="M272.516 91.8203C272.516 91.8203 264.919 96.9813 264.785 97.695C264.65 98.4088 265.054 98.7382 265.793 98.244C266.533 97.8048 273.323 93.4125 273.323 93.4125C273.323 93.4125 265.726 100.77 265.457 101.319C265.323 101.648 266.062 102.307 266.466 102.087C266.869 101.868 275.003 94.9498 275.003 94.9498C275.003 94.9498 267.877 101.813 267.877 102.362C267.81 102.801 268.684 103.295 269.289 102.801C269.894 102.307 276.953 96.2675 276.953 96.2675C276.953 96.2675 272.18 101.538 272.516 102.032C272.718 102.307 273.323 102.911 274.465 101.538C275.608 100.166 278.835 97.0911 278.835 97.0911L272.516 91.8203Z" fill="#FFE3CA"/>
<path d="M363.674 123.994H341.288C341.288 123.994 320.649 125.366 318.969 113.507C317.288 101.703 325.759 95.1143 325.759 95.1143C325.759 95.1143 336.649 97.4751 346.195 99.3418C350.968 98.5183 356.682 97.9692 363.405 98.134C363.405 98.134 403.74 109.005 402.53 114.77C402.53 114.825 385.656 107.468 363.674 123.994Z" fill="#0E538C"/>
<path d="M349.086 103.569L391.842 103.02L370.262 111.969L349.086 103.569Z" fill="#F2F2F2"/>
<path d="M362.397 99.0667C362.397 99.0667 352.784 102.086 341.019 99.3412L340.481 95.7725L364.75 96.8705L362.397 99.0667Z" fill="white"/>
<path d="M370.262 111.969L349.086 105.271V103.569L371.943 110.267L370.262 111.969Z" fill="#D3D3D3"/>
<path d="M362.196 100.769C362.061 102.032 363.675 102.965 365.153 102.471L367.641 101.592C368.38 101.318 368.851 100.714 368.716 100.055C367.708 94.7843 365.49 74.2504 368.716 70.6816C369.926 69.3639 370.666 68.211 371.069 67.2227C373.221 71.7248 375.842 77.5446 376.918 80.6741L397.086 102.636L403.875 104.063C395.405 87.4272 388.615 78.6427 388.615 78.6427C387.271 75.7328 383.506 66.9482 380.145 59.1519C377.994 54.2105 376.111 49.6535 375.036 47.2378C374.498 45.975 373.489 44.9318 372.078 44.273C368.918 42.7357 363.742 40.3199 359.036 38.4532H358.969C358.834 38.3983 358.7 38.3434 358.498 38.2885C367.506 49.3241 364.011 80.6741 362.196 100.769C362.196 100.714 362.196 100.714 362.196 100.769ZM328.852 39.167C325.961 39.5513 318.835 45.2064 315.07 50.9163C310.768 57.4499 306.331 64.8619 303.037 67.2776C296.987 71.7797 279.979 87.6469 279.172 87.2625C278.836 87.0978 283.811 91.9842 284.483 92.2039C284.819 92.3137 312.381 72.768 315.07 69.8032C317.558 67.0031 324.28 55.1439 326.297 55.4184C326.432 55.693 328.919 60.0303 331.205 66.3443C331.272 66.4541 331.272 66.5639 331.339 66.6737C332.952 71.066 332.818 75.8975 331.944 81.278C331.272 85.3409 327.574 91.9842 325.356 95.2236C325.087 95.6079 325.154 96.3765 325.423 96.9256C325.625 97.255 325.827 97.5295 326.163 97.6393L334.297 100.11L336.179 100.659C337.524 101.098 339.003 100.879 340.078 100.22C340.952 99.7257 341.625 98.9021 341.759 97.9138C343.574 86.6037 345.86 75.019 347.675 70.6816C355.675 51.5752 344.582 37.1904 344.582 37.1904C344.582 37.1904 331.406 38.3983 328.852 39.167Z" fill="#FFBE55"/>
<path d="M370.263 111.969L382.968 83.6392L423.909 84.1882L411.808 110.322L370.263 111.969Z" fill="#FFBE55"/>
<path d="M396.077 96.1573C394.799 98.1888 395.203 100.44 396.951 101.099C398.699 101.812 401.051 100.714 402.329 98.6829C403.606 96.6515 403.203 94.4004 401.455 93.7416C399.707 93.0278 397.287 94.1259 396.077 96.1573Z" fill="#F2F0F0"/>
<path d="M371.204 42.6262C368.179 38.8928 366.028 35.928 365.759 30.6023C365.557 27.0885 364.616 22.3119 361.658 19.951C364.75 13.3626 361.12 11.3861 359.641 9.24482C357.826 6.55454 344.381 0.0759135 339.07 6.88396C333.759 13.6371 335.642 20.7197 335.642 20.7197C336.18 16.9862 340.885 11.9351 340.885 11.9351C341.625 15.8333 351.507 22.2021 355.809 24.7825C355.742 24.8374 355.675 24.9473 355.675 25.0022C353.255 27.8571 356.28 30.7121 356.818 33.7318C357.356 36.7515 346.667 44.8773 358.566 48.9401C370.465 53.0579 374.229 46.3048 371.204 42.6262Z" fill="#0E538C"/>
<path d="M154.805 362.441C154.805 362.441 154.536 364.747 141.359 364.747C128.183 364.747 109.024 361.947 109.024 361.947L139.612 359.531C139.612 359.531 151.376 359.037 154.805 362.441Z" fill="#0E538C"/>
<path d="M121.259 360.83C113.797 360.83 110.637 363.96 107.679 364.948C104.722 365.936 101.764 367.419 101.764 367.364C103.444 364.674 105.797 364.619 107.007 363.74C108.217 362.862 107.881 363.301 105.259 363.136C103.78 363.027 101.091 365.278 99.209 366.54C97.5284 367.584 96.52 367.693 96.52 367.693C96.52 367.693 98.4696 365.442 100.89 363.63C103.848 361.434 107.545 359.622 108.419 359.293C110.032 358.744 115.007 358.634 118.503 359.019C122.536 359.458 126.637 360.83 121.259 360.83Z" fill="#0E538C"/>
<path d="M108.889 361.836C108.889 361.836 103.175 363.043 102.167 363.702C101.495 364.141 98.5366 366.722 98.5366 366.722C98.5366 366.722 100.688 366.447 101.898 365.459C103.175 364.416 108.889 361.836 108.889 361.836ZM143.981 357.718C143.981 357.718 158.367 358.486 157.359 365.734C156.821 369.851 153.527 371.279 149.157 370.95C141.09 370.4 131.948 369.412 131.948 369.412L127.847 358.157L143.981 357.718Z" fill="#0E538C"/>
<path d="M147.006 358.706L161.124 321.537C161.124 321.537 163.208 316.101 166.636 317.089C171.544 318.572 169.124 323.019 168.72 325.654C167.846 331.035 168.451 333.396 163.88 346.353C161.056 354.369 158.636 363.593 156.216 368.863C154.536 372.487 151.645 367.271 147.275 365.844C139.074 363.153 147.006 358.706 147.006 358.706Z" fill="#0E538C"/>
<path d="M148.082 301.332C150.839 307.811 159.376 311.16 167.242 308.799C175.04 306.438 179.208 299.246 176.451 292.767C173.695 286.288 165.158 282.939 157.292 285.3C149.494 287.661 145.326 294.853 148.082 301.332Z" fill="#0E538C"/>
<path d="M132.62 301.936C136.922 307.207 145.527 308.525 151.779 304.901L150.905 298.697C157.157 295.019 158.704 287.771 154.401 282.501L151.443 278.932C147.141 273.661 138.536 272.343 132.284 275.967L129.46 277.614C123.208 281.293 121.662 288.54 125.965 293.811L132.62 301.936Z" fill="#0E538C"/>
<path d="M126.973 284.641C127.713 285.52 128.519 286.343 129.46 287.167C135.645 292.657 143.914 294.743 149.158 292.492C151.578 295.183 154.334 297.324 156.821 298.971C159.712 300.893 167.107 301.661 167.107 301.661C171.409 305.504 155.275 327.96 154.132 327.85C151.779 327.686 148.754 315.277 150.973 310.775C151.981 308.744 153.594 306.328 153.124 305.23C151.443 301.442 149.09 302.1 149.09 302.1C149.09 302.1 145.998 305.065 143.578 304.955C141.09 304.791 136.788 301.606 136.586 301.551C135.847 301.057 135.175 300.453 134.57 299.74L128.116 291.834C126.435 289.637 126.032 287.002 126.973 284.641Z" fill="#FFE3CA"/>
<path d="M176.317 379.24C176.317 379.24 171.074 384.401 169.46 384.95C167.309 385.719 160.721 384.072 160.721 384.072C160.721 384.072 158.973 360.408 156.956 351.185C154.939 341.961 151.982 339.545 151.847 336.635C151.645 331.968 146.872 330.102 147.679 326.478C148.486 322.854 149.898 309.897 150.368 311.599C154.469 326.313 159.511 314.07 160.654 312.148C161.259 311.105 176.317 379.24 176.317 379.24Z" fill="#F2F0F0"/>
<path d="M152.452 307.207C152.452 307.207 146.065 312.917 146.536 315.168C146.939 317.419 143.78 324.447 146.939 334.22C150.502 345.365 152.385 352.942 153.057 360.244C153.729 367.546 150.704 374.245 151.914 383.194C152.855 390.222 154.805 390.606 154.805 390.606C154.805 390.606 158.636 391.375 161.325 388.629C164.015 385.939 159.981 362.001 158.636 356.071C157.292 350.087 152.99 336.141 151.847 332.024C150.435 326.973 150.704 321.812 150.771 320.329C151.107 315.113 151.914 311.874 152.586 309.898C152.653 309.623 152.99 306.548 152.452 307.207ZM163.611 313.906C167.107 322.141 177.997 326.369 187.947 323.349C197.896 320.329 203.14 311.215 199.644 302.98C196.148 294.744 185.258 290.517 175.308 293.536C165.359 296.501 160.115 305.67 163.611 313.906Z" fill="#0E538C"/>
<path d="M129.394 455.447L132.957 478.671L117.495 484.656L108.957 486.193L124.15 476.585L119.175 455.611L129.394 455.447Z" fill="#FCBAA2"/>
<path d="M133.965 482.185L130.603 482.898L128.318 481.196L115.948 486.248L104.99 488.389C104.99 488.389 104.856 487.675 105.192 487.291C106.537 485.808 114.268 482.569 114.268 482.569C114.268 482.569 114.402 484.71 115.478 484.765C116.553 484.82 126.032 480.757 128.25 479.659C132.015 477.737 132.755 476.475 133.023 476.639C133.83 476.969 133.965 482.185 133.965 482.185Z" fill="#0E538C"/>
<path d="M92.0832 423.163L79.7809 442.929L62.8401 442.27L54.3696 440.238L73.1256 437.658L83.3438 420.748L92.0832 423.163Z" fill="#FCBAA2"/>
<path d="M78.7725 422.316L75.4113 421.657L74.3356 419.242L59.0754 419.077L50 417.32C50 417.32 51.0756 416.332 51.7479 416.057C53.7646 415.344 60.9578 415.014 60.9578 415.014C60.9578 415.014 60.2183 416.716 61.1594 417.155C62.1006 417.65 72.5878 417.924 75.1424 417.759C79.5792 417.485 80.8565 416.716 80.991 416.936C81.4616 417.704 78.7725 422.316 78.7725 422.316Z" fill="#0E538C"/>
<path d="M181.829 364.032L172.687 367.381L172.754 377.648L109.763 369.248C109.763 369.248 103.78 367.656 99.9485 375.727C94.5032 387.147 80.6548 422.669 80.6548 422.669L89.3941 430.411L116.889 390.276C116.889 390.276 173.224 412.622 191.779 407.79C198.905 405.924 204.35 395.272 203.341 384.511C202.535 376.056 200.518 368.315 200.518 368.315L181.829 364.032Z" fill="#FFB750"/>
<path d="M173.829 407.571L128.721 404.826L132.62 463.682L119.31 464.067L109.495 395.108C109.495 395.108 112.116 384.841 120.721 386.378C129.393 387.97 150.233 401.477 173.829 407.571Z" fill="#FFB750"/>
<path d="M204.215 422.339C204.215 422.339 180.552 400.652 174.434 388.409C167.107 373.75 167.712 355.357 166.367 349.263C163.88 338.062 160.855 316.32 160.317 313.63C159.712 310.94 161.796 307.92 161.796 307.92C161.796 307.92 160.249 299.794 164.686 300.673C171.073 301.936 177.392 304.791 179.61 305.669C183.778 307.206 192.316 348.165 192.787 350.141C194.535 357.279 200.921 363.757 205.492 370.4C216.248 386.158 219.005 404.77 219.005 404.77C219.005 404.77 217.66 418.386 204.215 422.339Z" fill="#2A94F4"/>
<path d="M179.812 365.625C179.812 365.625 179.61 368.26 164.552 367.656C149.493 366.997 127.443 362.88 127.443 362.88L162.333 361.562C162.333 361.562 175.711 361.617 179.812 365.625Z" fill="#FFE3CA"/>
<path d="M139.275 364.269C132.082 364.159 128.99 367.179 126.166 368.112C123.343 369.046 120.452 370.418 120.452 370.418C122.065 367.838 124.351 367.783 125.561 366.959C126.704 366.136 126.435 366.575 123.881 366.355C122.402 366.246 119.847 368.387 118.032 369.595C116.419 370.638 115.41 370.693 115.41 370.693C115.41 370.693 117.292 368.497 119.645 366.74C122.536 364.653 126.032 362.897 126.906 362.622C128.452 362.128 133.225 362.073 136.653 362.512C140.485 362.951 144.452 364.379 139.275 364.269Z" fill="#FFE3CA"/>
<path d="M127.242 362.715C127.242 362.715 121.73 363.813 120.789 364.417C120.116 364.856 117.293 367.327 117.293 367.327C117.293 367.327 119.31 367.052 120.52 366.119C121.73 365.24 127.242 362.715 127.242 362.715Z" fill="#FFE3CA"/>
<path d="M167.779 362.715L190.098 353.106C190.098 353.106 190.165 364.746 190.3 369.193C190.434 373.64 192.72 379.899 188.418 380.833C184.115 381.766 181.897 381.272 186.334 383.413C190.77 385.5 189.762 387.696 188.081 389.508C186.401 391.319 193.728 409.767 191.98 410.81C185.056 403.673 177.594 394.833 174.367 388.409C170.267 380.064 168.653 370.511 167.779 362.715Z" fill="#0E538C"/>
<path d="M174.972 358.047L174.098 320.932C174.098 320.932 174.165 309.348 174.434 305.944C174.703 302.43 182.031 306.548 182.031 306.548C182.031 306.548 192.316 317.913 192.518 345.309C192.652 363.647 191.442 373.2 181.09 372.432C171.476 371.718 160.519 370.51 160.519 370.51L155.746 360.353L174.972 358.047Z" fill="#2A94F4"/>
<path d="M172.687 377.648L95.8481 369.797L96.0498 368.479L172.889 376.331L172.687 377.648Z" fill="#D3D3D3"/>
<path d="M139.007 372.817C138.873 373.86 137.864 374.629 136.789 374.519L97.3946 370.511C96.319 370.401 94.9745 369.578 94.0333 366.833L78.8403 334.714C79.042 333.396 80.3193 332.737 81.3949 333.067L121.663 338.228C122.739 338.557 123.478 339.326 123.881 340.753L139.007 372.817Z" fill="#D3D3D3"/>
<path d="M134.032 373.696L134.436 373.75L172.889 377.703C171.41 378.198 169.057 378.362 166.435 378.088L134.234 374.794L133.831 374.739L101.63 371.444C99.0078 371.17 96.7893 370.511 95.4448 369.797L134.032 373.696Z" fill="#D3D3D3"/>
<path d="M174.972 358.048L174.098 320.933C174.098 320.933 174.771 317.804 176.115 315.003C176.451 319.066 178.737 348.33 179.006 352.173C179.342 356.346 183.51 356.785 184.384 358.158C185.325 359.475 184.518 359.75 181.426 359.256C178.401 358.707 179.476 359.146 180.149 360.464C180.821 361.836 179.14 361.452 173.225 359.695C168.922 358.432 160.653 359.695 156.485 360.464L174.972 358.048Z" fill="#0E538C"/>
<path d="M440.647 266.962C433.253 268.554 419.606 274.154 416.715 283.762C412.413 298.202 421.018 319.34 407.438 340.094C403.068 346.682 482.529 355.576 482.529 355.576L497.856 282.664C497.856 282.664 478.697 266.852 474.798 265.754C466.664 263.558 455.437 263.778 440.647 266.962Z" fill="#CCE9FF"/>
<path d="M497.924 282.72C500.68 288.54 507.672 323.184 499.874 331.364C499 332.298 503.907 333.78 503.033 338.063C502.899 338.776 501.42 342.235 501.42 342.235L495.101 343.608L481.319 330.596C481.319 330.596 486.899 323.513 494.227 296.665C496.378 288.759 497.319 281.402 497.924 282.72Z" fill="#2A94F4"/>
<path d="M445.756 324.118C445.756 324.118 452.412 338.447 468.478 342.291C471.235 342.95 472.983 345.475 471.638 346.299C469.89 347.342 467.605 347.561 463.571 347.561C455.168 347.561 443.739 345.365 435.874 338.887C424.177 329.333 420.479 324.941 421.689 320.165C422.765 315.278 445.756 324.118 445.756 324.118Z" fill="#FCD2B1"/>
<path d="M419.001 278.932C415.572 283.654 413.623 291.23 413.69 302.101C413.69 310.501 422.295 324.282 423.572 328.51C423.774 329.224 424.312 332.243 424.312 332.243L433.791 340.149L452.815 329.224L447.034 321.702L445.286 321.866C445.286 321.866 444.211 317.694 444.479 316.102C444.748 314.509 439.236 292.822 436.48 278.932C434.933 270.861 422.362 274.265 419.001 278.932Z" fill="#2A94F4"/>
<path d="M436.076 321.537L441.656 320.109L443.942 319.615C444.076 320.933 445.421 321.811 445.421 321.811L441.051 322.251L436.009 323.568L430.093 327.027L436.076 321.537Z" fill="#0E538C"/>
<path d="M467.269 342.236L476.949 339.985C476.949 339.985 479.705 343.114 479.167 343.883C478.63 344.652 479.167 349.264 479.167 349.264L474.462 352.668L470.63 351.57C470.63 351.57 470.361 350.142 471.638 350.032C472.983 349.868 470.764 349.099 470.092 348.769C469.42 348.385 463.84 345.969 467.269 342.236Z" fill="#FCD2B1"/>
<path d="M452.345 266.249C451.269 268.829 452.883 271.739 455.975 272.618L461.487 274.265C464.58 275.198 467.941 273.77 469.017 271.19L473.924 259.331C475 256.75 473.386 253.84 470.294 252.907L464.782 251.26C461.689 250.327 458.328 251.754 457.252 254.335L452.345 266.249Z" fill="#FF957E"/>
<path d="M476.411 276.68C475.874 278.382 473.722 279.426 471.706 278.931L455.101 275.033C453.084 274.539 451.874 272.782 452.412 271.025L459.202 250.217C459.74 248.515 461.891 247.472 463.908 247.966L480.512 251.809C482.529 252.303 483.739 254.06 483.201 255.817L476.411 276.68Z" fill="#FCD2B1"/>
<path d="M485.016 253.731C485.151 253.621 483.47 252.083 484.344 249.064C485.487 245.001 481.789 243.354 479.033 243.299C477.42 243.244 471.974 245.385 469.084 246.099C466.193 246.813 466.462 245.879 461.218 245.111C457.723 244.562 456.916 246.154 455.706 248.35C454.496 250.601 454.361 259.166 454.361 259.166C454.832 259.715 455.571 260.154 456.042 259.715C456.513 259.276 458.395 252.413 459.941 250.381C461.42 248.35 467.47 251.589 470.764 253.182C473.991 254.774 476.882 255.048 482.058 254.17C482.663 254.719 483.201 255.323 483.201 255.597C483.201 256.146 481.722 260.044 481.722 260.044C481.722 260.044 484.613 258.562 485.42 257.409C485.823 257.025 485.957 255.158 485.016 253.731Z" fill="#FFBE55"/>
<path d="M457.656 266.688C457.454 267.237 456.782 267.621 456.11 267.457L452.547 266.633C451.874 266.468 451.471 265.864 451.673 265.315L453.488 259.77C453.689 259.221 454.362 258.837 455.034 259.001L458.597 259.825C459.269 259.99 459.673 260.594 459.471 261.143L457.656 266.688Z" fill="#FCD2B1"/>
<path d="M455.438 261.417C455.438 261.417 452.749 269.598 451.875 272.343C451.068 274.813 450.463 280.523 466.933 284.367C476.681 286.618 478.294 280.469 478.967 278.492C479.437 276.955 478.899 271.958 478.16 270.86C478.16 270.806 477.084 274.264 477.084 274.264C477.084 274.264 476.143 270.476 471.505 269.433C464.043 267.676 461.085 271.025 457.858 270.147C455.303 269.433 454.564 265.48 455.438 261.417Z" fill="#FFBE55"/>
<path d="M466.664 273.99L471.773 275.198C472.445 275.363 473.185 275.033 473.319 274.429L473.521 273.825L465.924 272.068L465.723 272.672C465.588 273.276 465.991 273.825 466.664 273.99Z" fill="#FCD2B1"/>
<path d="M547.671 357.169C545.318 362.714 503.907 383.083 489.991 381.876L448.11 383.578C412.547 379.899 395.674 333.121 395.674 333.121C397.086 321.372 432.177 338.392 444.681 343.663C464.446 352.008 477.017 352.447 477.017 352.447C490.26 353.6 505.588 344.925 522.327 344.651C540.679 344.267 551.435 348.439 547.671 357.169Z" fill="#0B4870"/>
<path d="M456.647 349.832C456.647 349.777 456.647 349.777 456.647 349.832V348.294L528.646 347.196V348.679V348.734L528.444 349.008C527.57 350.326 525.89 350.545 524.007 350.6L461.353 351.589C459.471 351.643 457.79 351.424 456.849 350.161L456.647 349.832Z" fill="#D3D3D3"/>
<path d="M473.991 351.514C473.991 351.514 473.991 351.568 473.991 351.514L473.79 351.788C473.521 352.117 473.185 352.392 472.781 352.557L461.824 352.721C460.009 352.776 458.395 352.612 457.454 351.568L457.252 351.349C457.252 351.349 457.252 351.349 457.185 351.294V350.58L473.857 350.306L473.991 351.514Z" fill="#D3D3D3"/>
<path d="M483.74 350.964L519.705 350.415V349.372L483.672 349.976L483.74 350.964Z" fill="#D3D3D3"/>
<path d="M474.395 349.701L483.067 319.614C483.269 318.846 484.21 318.187 485.151 318.132L535.705 317.363C536.646 317.363 537.184 317.967 536.982 318.791L528.31 348.878L474.395 349.701Z" fill="#D3D3D3"/>
<path d="M441.79 391.319C446.765 392.033 450.597 387.146 450.597 387.146L463.504 378.582L460.748 372.762L435.605 382.315C435.605 382.315 436.748 390.605 441.79 391.319Z" fill="#FCD2B1"/>
<path d="M450.53 386.817C450.53 386.817 450.53 387.311 449.589 389.562C448.648 391.813 447.438 392.581 446.228 392.911C441.387 394.119 437.959 393.515 426.396 395.382C414.833 397.248 411.338 395.821 407.976 391.319C404.615 386.817 408.111 383.248 413.758 382.918C421.892 382.424 426.463 383.193 430.699 382.644C435.135 382.095 435.404 381.216 438.026 379.844C440.446 378.581 442.732 386.158 440.446 387.915C438.362 389.452 448.849 389.672 450.53 386.817Z" fill="#FFB750"/>
<path d="M448.11 391.155C443.337 392.363 439.841 391.759 428.278 393.626C416.715 395.492 413.22 394.065 409.858 389.563C408.312 387.476 408.245 385.61 409.119 384.182C406.564 385.665 405.69 388.245 407.976 391.32C411.337 395.822 414.833 397.249 426.396 395.382C437.959 393.516 441.454 394.12 446.227 392.912C447.169 392.692 448.11 392.143 448.916 390.88C448.648 390.99 448.379 391.1 448.11 391.155Z" fill="white"/>
<path d="M450.53 386.982C450.53 386.872 450.53 386.872 450.53 386.872C450.53 386.927 450.463 386.982 450.396 387.038C450.463 386.982 450.53 386.982 450.53 386.982Z" fill="#E9D6B8"/>
<path d="M425.589 390.331C425.253 390.441 424.917 389.837 424.782 389.013C424.58 387.311 424.11 385.664 423.438 383.962C423.102 383.139 423.101 382.425 423.505 382.315C423.908 382.205 424.58 382.809 424.849 383.633C425.522 385.28 425.925 386.982 426.127 388.629C426.261 389.452 425.925 390.221 425.589 390.331ZM429.152 389.782C428.748 389.837 428.412 389.288 428.278 388.519C428.076 386.927 427.606 385.335 426.933 383.797C426.597 383.029 426.597 382.37 427.068 382.315C427.471 382.26 428.143 382.864 428.48 383.633C429.085 385.17 429.555 386.762 429.757 388.3C429.824 389.068 429.555 389.727 429.152 389.782ZM432.916 389.672C432.513 389.727 432.11 389.123 431.975 388.3C431.639 386.652 431.169 385.06 430.429 383.413C430.093 382.59 430.093 381.931 430.496 381.931C430.967 381.931 431.639 382.535 431.975 383.358C432.715 384.95 433.185 386.597 433.454 388.19C433.589 388.958 433.32 389.617 432.916 389.672Z" fill="white"/>
<path d="M442.665 377.319C442.665 377.319 531.201 346.518 536.243 346.463C553.318 346.353 549.419 360.958 540.747 367.875C530.528 376.001 452.816 390.88 452.816 390.88L442.665 377.319Z" fill="#0E538C"/>
<path d="M477.756 382.699L453.555 363.263L463.907 354.643L490.26 378.142L477.756 382.699Z" fill="#FCD2B1"/>
<path d="M482.731 367.436C482.731 367.436 421.219 319.725 417.118 318.297C403.068 313.466 394.396 326.587 394.867 331.144C395.539 337.019 457.992 384.785 457.992 384.785L482.731 367.436Z" fill="#0E538C"/>
<path d="M519.167 384.182C520.579 385.28 520.848 388.629 520.848 388.629C520.848 388.629 500.344 395.217 493.151 395.327C491.269 395.382 487.907 394.723 484.68 393.954C484.143 393.845 482.865 392.637 482.327 392.527C481.319 392.307 481.117 393.076 480.311 392.856C478.16 392.252 476.546 391.758 476.479 391.649C472.109 383.852 473.588 380.009 473.588 380.009C473.588 380.009 483 382.315 481.386 380.503C477.958 376.66 487.84 372.762 489.991 374.793C498.865 382.974 514.999 380.942 519.167 384.182Z" fill="#FFB750"/>
<path d="M520.31 385.829C513.991 387.97 500.748 392.307 498.126 392.472C487.303 393.131 479.773 389.892 474.731 387.97C475.202 389.068 475.74 390.331 476.479 391.649C476.547 391.758 478.093 392.253 480.311 392.856C481.185 393.076 481.387 392.253 482.328 392.527C482.866 392.637 484.076 393.845 484.681 393.955C487.908 394.723 491.269 395.327 493.151 395.327C500.344 395.217 520.848 388.629 520.848 388.629C520.848 388.629 520.848 387.092 520.31 385.829ZM505.857 380.778C506.059 381.107 505.252 381.437 504.109 381.656C501.756 382.04 499.47 382.644 497.185 383.413C496.042 383.797 495.034 383.907 494.899 383.578C494.765 383.248 495.504 382.644 496.647 382.26C498.865 381.491 501.218 380.942 503.504 380.558C504.58 380.284 505.655 380.448 505.857 380.778ZM501.218 379.405C501.42 379.735 500.613 380.174 499.47 380.448C497.185 380.997 494.966 381.766 492.748 382.699C491.672 383.139 490.664 383.303 490.529 382.974C490.395 382.644 491.134 381.931 492.21 381.491C494.361 380.613 496.58 379.844 498.865 379.35C500.008 378.966 501.084 379.076 501.218 379.405ZM496.781 378.197C496.916 378.527 496.176 379.021 495.101 379.35C492.882 380.064 490.731 380.942 488.647 381.986C487.639 382.535 486.698 382.699 486.563 382.315C486.429 381.986 487.101 381.217 488.177 380.668C490.261 379.625 492.412 378.746 494.563 378.087C495.639 377.813 496.647 377.868 496.781 378.197Z" fill="white"/>
</svg>
