<svg width="29" height="32" viewBox="0 0 29 32" fill="none" xmlns="http://www.w3.org/2000/svg">
<path d="M0.430712 14.9051L15.1885 0.175195C15.3018 0.0628904 15.4463 0 15.5987 0L19.0557 0C19.3448 0 19.4776 0.413281 19.2588 0.628906L5.57915 14.2852L28.4385 14.2852C28.6104 14.2852 28.751 14.4469 28.751 14.6445L28.751 17.3398C28.751 17.5375 28.6104 17.6992 28.4385 17.6992L5.58306 17.6992L19.2627 31.3555C19.4815 31.5756 19.3487 31.9844 19.0596 31.9844L15.4854 31.9844C15.4112 31.9844 15.337 31.9529 15.2823 31.8945L0.430712 17.0793C0.295483 16.9441 0.187057 16.777 0.112755 16.5895C0.0384521 16.402 3.8147e-06 16.1983 3.8147e-06 15.9922C3.8147e-06 15.7861 0.0384521 15.5824 0.112755 15.3949C0.187057 15.2073 0.295483 15.0403 0.430712 14.9051Z" fill="#203647"/>
</svg>
