<svg width="360" height="235" viewBox="0 0 360 235" fill="none" xmlns="http://www.w3.org/2000/svg">
<path d="M284.238 424.629C287.033 423.268 289.822 421.795 292.487 420.223C332.22 396.832 356.181 355.306 359.09 313.4C361.368 279.881 348.409 248.858 328.269 223.141C308.191 197.474 280.609 178.102 265.477 148.825C244.221 107.54 226.867 60.8431 184.196 31.1911C135.721 -2.51868 64.0007 -9.95601 4.72965 14.5264C-53.1129 38.3531 -69.6884 99.0623 -93.6169 147.387C-136.717 234.263 -162.961 351.078 -104.985 430.734C-35.577 526.169 111.82 492.058 213.317 448.87C236.441 439.026 261.64 435.486 284.238 424.629Z" fill="url(#paint0_linear_144_1648)" fill-opacity="0.1"/>
<path d="M284.238 424.629C287.033 423.268 289.822 421.795 292.487 420.223C332.22 396.832 356.181 355.306 359.09 313.4C361.368 279.881 348.409 248.858 328.269 223.141C308.191 197.474 280.609 178.102 265.477 148.825C244.221 107.54 226.867 60.8431 184.196 31.1911C135.721 -2.51868 64.0007 -9.95601 4.72965 14.5264C-53.1129 38.3531 -69.6884 99.0623 -93.6169 147.387C-136.717 234.263 -162.961 351.078 -104.985 430.734C-35.577 526.169 111.82 492.058 213.317 448.87C236.441 439.026 261.64 435.486 284.238 424.629Z" fill="url(#paint1_linear_144_1648)" fill-opacity="0.4"/>
<defs>
<linearGradient id="paint0_linear_144_1648" x1="354.917" y1="194.181" x2="-142.842" y2="212.363" gradientUnits="userSpaceOnUse">
<stop stop-color="#B8DBD9"/>
<stop offset="1" stop-color="#F4F4F9" stop-opacity="0.6"/>
</linearGradient>
<linearGradient id="paint1_linear_144_1648" x1="-140.749" y1="266.877" x2="357.046" y2="246.694" gradientUnits="userSpaceOnUse">
<stop stop-color="#468189"/>
<stop offset="1" stop-color="#A9FBD7"/>
</linearGradient>
</defs>
</svg>
