<svg width="346" height="226" viewBox="0 0 346 226" fill="none" xmlns="http://www.w3.org/2000/svg">
<path d="M351.4 493.181C354.507 493.251 357.662 493.22 360.751 493.043C406.784 490.457 447.109 464.524 468.894 428.608C486.277 399.858 488.972 366.345 482.853 334.258C476.766 302.245 461.124 272.389 461.089 239.432C461.11 192.996 467.08 143.538 442.736 97.6311C415.094 45.4582 354.751 5.98724 290.85 0.59265C228.519 -4.73023 185.971 41.6377 142.561 73.6288C64.4471 131.102 -12.4017 222.911 2.63577 320.277C20.6046 436.907 167.249 474.119 277.254 482.234C302.318 484.079 326.339 492.477 351.4 493.181Z" fill="url(#paint0_linear_144_1093)" fill-opacity="0.1"/>
<path d="M351.4 493.181C354.507 493.251 357.662 493.22 360.751 493.043C406.784 490.457 447.109 464.524 468.894 428.608C486.277 399.858 488.972 366.345 482.853 334.258C476.766 302.245 461.124 272.389 461.089 239.432C461.11 192.996 467.08 143.538 442.736 97.6311C415.094 45.4582 354.751 5.98724 290.85 0.59265C228.519 -4.73023 185.971 41.6377 142.561 73.6288C64.4471 131.102 -12.4017 222.911 2.63577 320.277C20.6046 436.907 167.249 474.119 277.254 482.234C302.318 484.079 326.339 492.477 351.4 493.181Z" fill="url(#paint1_linear_144_1093)" fill-opacity="0.4"/>
<defs>
<linearGradient id="paint0_linear_144_1093" x1="519.808" y1="320.726" x2="69.0363" y2="108.83" gradientUnits="userSpaceOnUse">
<stop stop-color="#B8DBD9"/>
<stop offset="1" stop-color="#F4F4F9" stop-opacity="0.6"/>
</linearGradient>
<linearGradient id="paint1_linear_144_1093" x1="45.9198" y1="158.245" x2="497.64" y2="368.378" gradientUnits="userSpaceOnUse">
<stop stop-color="#468189"/>
<stop offset="1" stop-color="#A9FBD7"/>
</linearGradient>
</defs>
</svg>
