<svg width="26" height="25" viewBox="0 0 26 25" fill="none" xmlns="http://www.w3.org/2000/svg">
<path d="M5.39174 17.6844C5.89913 17.2171 6.39296 16.7363 6.87266 16.2427C7.27566 15.849 7.51833 15.5625 7.51833 15.5625L10.5517 14.1698C9.33725 12.8455 8.66702 11.1406 8.66666 9.375C8.66666 5.35521 12.0683 2.08334 16.25 2.08334C20.4317 2.08334 23.8333 5.35521 23.8333 9.375C23.8333 13.3948 20.4317 16.6667 16.25 16.6667C14.3401 16.6667 12.5992 15.9792 11.2634 14.8552L9.81499 17.7719C9.81499 17.7719 9.51708 18.0052 9.10758 18.3927C8.68833 18.7708 8.13691 19.2823 7.60825 19.8167L6.13708 21.2667L5.48274 21.9396L3.185 19.7302L3.88483 19.101C4.29541 18.7135 4.84358 18.199 5.39174 17.6844ZM16.25 14.5833C19.2367 14.5833 21.6667 12.2469 21.6667 9.375C21.6667 6.50313 19.2367 4.16667 16.25 4.16667C13.2632 4.16667 10.8333 6.50313 10.8333 9.375C10.8333 12.2469 13.2632 14.5833 16.25 14.5833Z" fill="#203647"/>
</svg>
