<svg width="378" height="136" viewBox="0 0 378 136" fill="none" xmlns="http://www.w3.org/2000/svg">
<path d="M121.339 3.68032C118.908 3.03357 116.428 2.46088 113.985 2.01968C77.5819 -4.59444 43.2153 8.94846 22.3556 34.1631C5.7015 54.3577 0.0776264 81.2281 1.5217 108.604C2.94755 135.915 12.0996 163.274 8.67739 190.208C3.7995 228.144 -6.0645 267.421 8.23719 309.545C24.4722 357.413 67.7039 401.103 117.296 417.626C165.664 433.792 203.915 403.974 241.338 386.066C308.668 353.917 378.6 293.475 376.99 211.072C375.096 112.374 263.887 54.1679 178.392 26.6814C158.911 20.4221 140.937 9.00626 121.339 3.68032Z" fill="url(#paint0_linear_144_1651)" fill-opacity="0.1"/>
<path d="M121.339 3.68032C118.908 3.03357 116.428 2.46088 113.985 2.01968C77.5819 -4.59444 43.2153 8.94846 22.3556 34.1631C5.7015 54.3577 0.0776264 81.2281 1.5217 108.604C2.94755 135.915 12.0996 163.274 8.67739 190.208C3.7995 228.144 -6.0645 267.421 8.23719 309.545C24.4722 357.413 67.7039 401.103 117.296 417.626C165.664 433.792 203.915 403.974 241.338 386.066C308.668 353.917 378.6 293.475 376.99 211.072C375.096 112.374 263.887 54.1679 178.392 26.6814C158.911 20.4221 140.937 9.00626 121.339 3.68032Z" fill="url(#paint1_linear_144_1651)" fill-opacity="0.52"/>
<defs>
<linearGradient id="paint0_linear_144_1651" x1="-28.9016" y1="112.655" x2="322.297" y2="341.181" gradientUnits="userSpaceOnUse">
<stop stop-color="#B8DBD9"/>
<stop offset="1" stop-color="#F4F4F9" stop-opacity="0.6"/>
</linearGradient>
<linearGradient id="paint1_linear_144_1651" x1="326.052" y1="335.253" x2="-26.0745" y2="108.269" gradientUnits="userSpaceOnUse">
<stop stop-color="#468189"/>
<stop offset="1" stop-color="#A9FBD7"/>
</linearGradient>
</defs>
</svg>
