<svg width="394" height="253" viewBox="0 0 394 253" fill="none" xmlns="http://www.w3.org/2000/svg">
<path d="M26.5707 -106.855C24.7079 -104.375 22.9031 -101.785 21.2592 -99.1457C-3.28137 -59.8385 -4.85951 -8.65061 12.7249 34.5123C26.8335 69.0183 53.475 94.9386 84.0321 112.673C114.509 130.383 148.715 138.787 176.474 162.09C215.544 194.982 253.705 234.858 306.471 247.541C366.425 261.975 434.668 240.795 476.296 192.592C516.952 145.618 502.622 78.1515 500.892 20.1625C497.856 -84.1197 465.188 -211.681 374.513 -268.372C265.924 -336.314 149.494 -243.276 78.8175 -159.468C62.7176 -140.369 41.7079 -126.76 26.5707 -106.855Z" fill="url(#paint0_linear_144_1650)" fill-opacity="0.1"/>
<path d="M26.5707 -106.855C24.7079 -104.375 22.9031 -101.785 21.2592 -99.1457C-3.28137 -59.8385 -4.85951 -8.65061 12.7249 34.5123C26.8335 69.0183 53.475 94.9386 84.0321 112.673C114.509 130.383 148.715 138.787 176.474 162.09C215.544 194.982 253.705 234.858 306.471 247.541C366.425 261.975 434.668 240.795 476.296 192.592C516.952 145.618 502.622 78.1515 500.892 20.1625C497.856 -84.1197 465.188 -211.681 374.513 -268.372C265.924 -336.314 149.494 -243.276 78.8175 -159.468C62.7176 -140.369 41.7079 -126.76 26.5707 -106.855Z" fill="url(#paint1_linear_144_1650)" fill-opacity="0.6"/>
<defs>
<linearGradient id="paint0_linear_144_1650" x1="73.9732" y1="152.339" x2="508.813" y2="-74.4433" gradientUnits="userSpaceOnUse">
<stop stop-color="#B8DBD9"/>
<stop offset="1" stop-color="#F4F4F9" stop-opacity="0.6"/>
</linearGradient>
<linearGradient id="paint1_linear_144_1650" x1="485.765" y1="-118.419" x2="51.6686" y2="109.939" gradientUnits="userSpaceOnUse">
<stop stop-color="#468189"/>
<stop offset="1" stop-color="#A9FBD7"/>
</linearGradient>
</defs>
</svg>
