<svg width="341" height="329" viewBox="0 0 341 329" fill="none" xmlns="http://www.w3.org/2000/svg">
<path d="M-63.2941 286.122C-61.335 288.331 -59.2609 290.506 -57.1084 292.541C-25.068 322.901 22.6661 334.128 66.6583 325.969C101.837 319.399 131.437 299.514 154.127 274.421C176.779 249.397 191.433 219.124 218.797 197.7C257.399 167.563 302.376 139.604 324.718 92.8518C350.126 39.7358 343.745 -27.8916 306.735 -75.8691C270.686 -122.707 204.526 -122.213 149.753 -131.653C51.271 -148.701 -74.9231 -142.573 -146.071 -68.8853C-231.324 19.3513 -167.027 145.578 -102.343 227.41C-87.6004 246.052 -78.9825 268.223 -63.2941 286.122Z" fill="url(#paint0_linear_46_328)" fill-opacity="0.1"/>
<path d="M-63.2941 286.122C-61.335 288.331 -59.2609 290.506 -57.1084 292.541C-25.068 322.901 22.6661 334.128 66.6583 325.969C101.837 319.399 131.437 299.514 154.127 274.421C176.779 249.397 191.433 219.124 218.797 197.7C257.399 167.563 302.376 139.604 324.718 92.8518C350.126 39.7358 343.745 -27.8916 306.735 -75.8691C270.686 -122.707 204.526 -122.213 149.753 -131.653C51.271 -148.701 -74.9231 -142.573 -146.071 -68.8853C-231.324 19.3513 -167.027 145.578 -102.343 227.41C-87.6004 246.052 -78.9825 268.223 -63.2941 286.122Z" fill="url(#paint1_linear_46_328)" fill-opacity="0.6"/>
<defs>
<linearGradient id="paint0_linear_46_328" x1="189.369" y1="291.354" x2="62.2509" y2="-156.99" gradientUnits="userSpaceOnUse">
<stop stop-color="#B8DBD9"/>
<stop offset="1" stop-color="#F4F4F9" stop-opacity="0.6"/>
</linearGradient>
<linearGradient id="paint1_linear_46_328" x1="16.6851" y1="-143.972" x2="145.396" y2="303.989" gradientUnits="userSpaceOnUse">
<stop stop-color="#468189"/>
<stop offset="1" stop-color="#A9FBD7"/>
</linearGradient>
</defs>
</svg>
