<svg width="506" height="809" viewBox="0 0 506 809" fill="none" xmlns="http://www.w3.org/2000/svg">
<path d="M2.61497 1.05338C-1.73729 0.574046 -6.14948 0.253715 -10.4607 0.177027C-74.7164 -1.04244 -129.562 36.2186 -157.857 91.8263C-180.429 136.346 -182.159 190.305 -171.642 242.989C-161.175 295.552 -137.469 345.743 -135.412 399.122C-132.613 474.323 -137.954 553.721 -101.094 630.93C-59.2373 718.674 27.6021 789.689 117.345 805.934C204.887 821.878 261.599 751.783 320.393 705.072C426.193 621.169 528.133 481.51 501.161 322.055C468.913 131.058 261.452 53.5615 107.032 27.4931C71.8475 21.5606 37.725 5.13684 2.61497 1.05338Z" fill="url(#paint0_linear_214_273)" fill-opacity="0.1"/>
<path d="M2.61497 1.05338C-1.73729 0.574046 -6.14948 0.253715 -10.4607 0.177027C-74.7164 -1.04244 -129.562 36.2186 -157.857 91.8263C-180.429 136.346 -182.159 190.305 -171.642 242.989C-161.175 295.552 -137.469 345.743 -135.412 399.122C-132.613 474.323 -137.954 553.721 -101.094 630.93C-59.2373 718.674 27.6021 789.689 117.345 805.934C204.887 821.878 261.599 751.783 320.393 705.072C426.193 621.169 528.133 481.51 501.161 322.055C468.913 131.058 261.452 53.5615 107.032 27.4931C71.8475 21.5606 37.725 5.13684 2.61497 1.05338Z" fill="url(#paint1_linear_214_273)" fill-opacity="0.52"/>
<defs>
<linearGradient id="paint0_linear_214_273" x1="-222.527" y1="260.564" x2="471.273" y2="525.276" gradientUnits="userSpaceOnUse">
<stop stop-color="white"/>
<stop offset="1" stop-color="#F4F4F9" stop-opacity="0.6"/>
</linearGradient>
<linearGradient id="paint1_linear_214_273" x1="450.465" y1="579.388" x2="-244.013" y2="317.551" gradientUnits="userSpaceOnUse">
<stop stop-color="#468189"/>
<stop offset="1" stop-color="#A9FBD7"/>
</linearGradient>
</defs>
</svg>
