<svg width="546" height="725" viewBox="0 0 546 725" fill="none" xmlns="http://www.w3.org/2000/svg">
<path d="M463.955 720.733C468.229 721.657 472.579 722.45 476.853 723.018C540.548 731.557 598.823 705.475 632.602 660.32C659.565 624.159 666.79 577.35 661.722 530.226C656.691 483.214 638.269 436.727 641.674 389.982C646.569 324.138 659.978 255.585 631.25 184.029C598.633 102.714 519.631 30.7388 432.156 6.14363C346.836 -17.9335 283.355 36.5375 220.193 70.3922C106.547 131.181 -8.95449 240.995 1.5596 383.057C14.0936 553.212 212.236 644.869 362.946 685.548C397.286 694.811 429.501 713.09 463.955 720.733Z" fill="url(#paint0_linear_211_277)" fill-opacity="0.1"/>
<path d="M463.955 720.733C468.229 721.657 472.579 722.45 476.853 723.018C540.548 731.557 598.823 705.475 632.602 660.32C659.565 624.159 666.79 577.35 661.722 530.226C656.691 483.214 638.269 436.727 641.674 389.982C646.569 324.138 659.978 255.585 631.25 184.029C598.633 102.714 519.631 30.7388 432.156 6.14363C346.836 -17.9335 283.355 36.5375 220.193 70.3922C106.547 131.181 -8.95449 240.995 1.5596 383.057C14.0936 553.212 212.236 644.869 362.946 685.548C397.286 694.811 429.501 713.09 463.955 720.733Z" fill="url(#paint1_linear_211_277)" fill-opacity="0.52"/>
<defs>
<linearGradient id="paint0_linear_211_277" x1="714.056" y1="520.835" x2="84.0655" y2="154.339" gradientUnits="userSpaceOnUse">
<stop stop-color="white"/>
<stop offset="1" stop-color="#F4F4F9" stop-opacity="0.6"/>
</linearGradient>
<linearGradient id="paint1_linear_211_277" x1="78.1761" y1="164.758" x2="709.659" y2="528.469" gradientUnits="userSpaceOnUse">
<stop stop-color="#468189"/>
<stop offset="1" stop-color="#A9FBD7"/>
</linearGradient>
</defs>
</svg>
