<svg width="577" height="709" viewBox="0 0 577 709" fill="none" xmlns="http://www.w3.org/2000/svg">
<path d="M73.615 0.80116C69.2627 0.380695 64.8505 0.099693 60.5393 0.0324226C-3.71647 -1.03728 -58.5617 31.6478 -86.8572 80.4265C-109.429 119.479 -111.159 166.811 -100.642 213.026C-90.175 259.133 -66.4691 303.16 -64.4117 349.984C-61.6125 415.95 -66.9539 485.598 -30.0944 553.325C11.7627 630.293 98.6021 692.587 188.345 706.837C275.887 720.823 332.599 659.336 391.393 618.361C497.193 544.763 599.133 422.254 572.161 282.382C539.913 114.84 332.452 46.8609 178.032 23.9939C142.847 18.79 108.725 4.38315 73.615 0.80116Z" fill="url(#paint0_linear_211_345)" fill-opacity="0.1"/>
<path d="M73.615 0.80116C69.2627 0.380695 64.8505 0.099693 60.5393 0.0324226C-3.71647 -1.03728 -58.5617 31.6478 -86.8572 80.4265C-109.429 119.479 -111.159 166.811 -100.642 213.026C-90.175 259.133 -66.4691 303.16 -64.4117 349.984C-61.6125 415.95 -66.9539 485.598 -30.0944 553.325C11.7627 630.293 98.6021 692.587 188.345 706.837C275.887 720.823 332.599 659.336 391.393 618.361C497.193 544.763 599.133 422.254 572.161 282.382C539.913 114.84 332.452 46.8609 178.032 23.9939C142.847 18.79 108.725 4.38315 73.615 0.80116Z" fill="url(#paint1_linear_211_345)" fill-opacity="0.52"/>
<defs>
<linearGradient id="paint0_linear_211_345" x1="-151.527" y1="228.442" x2="516.828" y2="519.146" gradientUnits="userSpaceOnUse">
<stop stop-color="white"/>
<stop offset="1" stop-color="#F4F4F9" stop-opacity="0.6"/>
</linearGradient>
<linearGradient id="paint1_linear_211_345" x1="521.465" y1="508.112" x2="-148.048" y2="220.348" gradientUnits="userSpaceOnUse">
<stop stop-color="#468189"/>
<stop offset="1" stop-color="#A9FBD7"/>
</linearGradient>
</defs>
</svg>
