<svg width="96" height="91" viewBox="0 0 96 91" fill="none" xmlns="http://www.w3.org/2000/svg">
<path d="M67.5 18.2H90V27.3H81V86.45C81 87.6567 80.5259 88.814 79.682 89.6673C78.8381 90.5206 77.6935 91 76.5 91H13.5C12.3065 91 11.1619 90.5206 10.318 89.6673C9.47411 88.814 9 87.6567 9 86.45V27.3H0V18.2H22.5V4.55C22.5 3.34327 22.9741 2.18595 23.818 1.33266C24.6619 0.479373 25.8065 0 27 0H63C64.1935 0 65.3381 0.479373 66.182 1.33266C67.0259 2.18595 67.5 3.34327 67.5 4.55V18.2ZM72 27.3H18V81.9H72V27.3ZM31.5 40.95H40.5V68.25H31.5V40.95ZM49.5 40.95H58.5V68.25H49.5V40.95ZM31.5 9.1V18.2H58.5V9.1H31.5Z" fill="#611707"/>
<path d="M75.3092 36C74.4271 36.0016 73.5683 35.7147 72.8624 35.1823L72.8187 35.1493L63.604 28.0518C63.1772 27.7229 62.819 27.3126 62.5499 26.8444C62.2808 26.3762 62.106 25.8592 62.0354 25.3231C61.9649 24.7869 62 24.242 62.1387 23.7195C62.2775 23.197 62.5173 22.7071 62.8442 22.2778C63.1712 21.8485 63.579 21.4881 64.0444 21.2174C64.5098 20.9466 65.0237 20.7707 65.5566 20.6998C66.0896 20.6288 66.6312 20.6641 67.1506 20.8037C67.67 20.9433 68.157 21.1845 68.5838 21.5135L74.5523 26.1176L88.657 7.61247C88.9841 7.18326 89.3921 6.82309 89.8575 6.5525C90.323 6.28191 90.837 6.1062 91.37 6.03542C91.903 5.96464 92.4446 6.00017 92.9639 6.13998C93.4833 6.27979 93.9701 6.52113 94.3968 6.85024L94.3091 6.97004L94.399 6.85198C95.2596 7.51737 95.8227 8.499 95.9647 9.58152C96.1068 10.664 95.8162 11.759 95.1567 12.6263L78.5662 34.3927C78.1825 34.8943 77.6891 35.3002 77.1243 35.5789C76.5595 35.8577 75.9384 36.0017 75.3092 36Z" fill="#1ECF1A"/>
</svg>
