<svg width="158" height="116" viewBox="0 0 158 116" fill="none" xmlns="http://www.w3.org/2000/svg">
<path d="M79 116C67.5287 116 56.315 112.598 46.777 106.225C37.2389 99.8521 29.8049 90.7938 25.415 80.1957C21.0251 69.5975 19.8765 57.9357 22.1145 46.6848C24.3524 35.4339 29.8764 25.0993 37.9878 16.9878C46.0993 8.87639 56.4339 3.35242 67.6848 1.11448C78.9357 -1.12346 90.5975 0.0251331 101.196 4.41502C111.794 8.8049 120.852 16.2389 127.225 25.777C133.598 35.315 137 46.5287 137 58C136.983 73.3773 130.866 88.1197 119.993 98.993C109.12 109.866 94.3773 115.983 79 116ZM79 2.00004C67.9243 2.00004 57.0973 5.28436 47.8881 11.4377C38.6789 17.5911 31.5013 26.3371 27.2628 36.5698C23.0243 46.8024 21.9153 58.0621 24.076 68.9251C26.2368 79.788 31.5703 89.7663 39.4021 97.598C47.2338 105.43 57.2121 110.763 68.075 112.924C78.9379 115.085 90.1976 113.976 100.43 109.737C110.663 105.499 119.409 98.3211 125.562 89.112C131.716 79.9028 135 69.0758 135 58C134.983 43.1531 129.078 28.919 118.579 18.4206C108.081 7.92224 93.847 2.01685 79 2.00004Z" fill="#611707"/>
<path d="M72.5296 83.3417C70.9113 83.3447 69.3358 82.8214 68.041 81.8507L67.9607 81.7904L51.0567 68.8482C50.2738 68.2483 49.6168 67.5002 49.1231 66.6464C48.6293 65.7926 48.3086 64.85 48.1792 63.8723C48.0498 62.8946 48.1142 61.901 48.3688 60.9482C48.6234 59.9953 49.0631 59.102 49.663 58.3192C50.2628 57.5363 51.0109 56.8793 51.8647 56.3855C52.7184 55.8918 53.6611 55.5711 54.6388 55.4417C55.6165 55.3122 56.6101 55.3766 57.5629 55.6312C58.5157 55.8858 59.4091 56.3256 60.192 56.9254L71.1411 65.3211L97.0156 31.5769C97.6157 30.7942 98.364 30.1374 99.218 29.644C100.072 29.1506 101.015 28.8302 101.992 28.7011C102.97 28.5721 103.964 28.6369 104.917 28.8918C105.869 29.1467 106.762 29.5868 107.545 30.187L107.384 30.4054L107.549 30.1901C109.128 31.4035 110.161 33.1935 110.421 35.1675C110.682 37.1414 110.149 39.1382 108.939 40.7196L78.5045 80.4108C77.8006 81.3255 76.8954 82.0656 75.8593 82.5739C74.8231 83.0822 73.6837 83.3449 72.5296 83.3417Z" fill="#611707"/>
<circle cx="147.5" cy="18.5" r="10.5" fill="#611707"/>
<circle cx="10.5" cy="105.5" r="10.5" fill="#611707"/>
</svg>
